<?xml version='1.0' encoding='utf-8'?>
<svg xmlns="http://www.w3.org/2000/svg" xmlns:xlink="http://www.w3.org/1999/xlink" version="1.1" width="800" height="453.3663781725903" viewBox="0 0 713.8726633431086 404.55732982035755">
  <defs/>
  <g>
    <g/>
    <rect fill="#FFFFFF" stroke="none" x="0" y="0" width="655" height="375" transform="matrix(1.125 0 0 1.125 0 0)"/>
    <g>
      <path fill="none" stroke="black" paint-order="fill stroke markers" d=" M 113.87101242257924 236.47310113662962 Q 159.70257745422919 192.07306181567003 207.17411348542944 153.84613056814248" stroke-miterlimit="10" stroke-dasharray=""/>
      <path fill="none" stroke="black" paint-order="fill stroke markers" d=" M 113.87101242257924 236.47310113662962 Q 114.313876831937 313.66608580134516 156.53329446896325 373.00873333339143" stroke-miterlimit="10" stroke-dasharray=""/>
      <path fill="none" stroke="black" paint-order="fill stroke markers" d=" M 296.5211507048887 376.7284383940327 Q 367.39754366834535 378.6139699873264 419.3195997680415 335.728622274479" stroke-miterlimit="10" stroke-dasharray=""/>
      <path fill="none" stroke="black" paint-order="fill stroke markers" d=" M 296.5211507048887 376.7284383940327 Q 255.0741600598682 336.5912333707138 217.30980933530455 292.68233146493503" stroke-miterlimit="10" stroke-dasharray=""/>
      <path fill="none" stroke="black" paint-order="fill stroke markers" d=" M 233.9849326001349 44.900103087251125 Q 163.8954922617837 52.68757827516225 111.00598169107198 97.79576886312343" stroke-miterlimit="10" stroke-dasharray=""/>
      <path fill="none" stroke="black" paint-order="fill stroke markers" d=" M 233.9849326001349 44.900103087251125 Q 302.83127670617455 47.17325447660983 359.7521016879727 81.31737128099604" stroke-miterlimit="10" stroke-dasharray=""/>
      <path fill="none" stroke="black" paint-order="fill stroke markers" d=" M 427.020979473327 199.32030152139896 Q 369.31653211210056 214.81796234818162 337.9902308676611 260.1383916325751" stroke-miterlimit="10" stroke-dasharray=""/>
      <path fill="none" stroke="black" paint-order="fill stroke markers" d=" M 427.020979473327 199.32030152139896 Q 489.11667459671656 185.3947629543865 548.3057407470983 177.3238856969765" stroke-miterlimit="10" stroke-dasharray=""/>
      <path fill="none" stroke="black" paint-order="fill stroke markers" d=" M 696.0027006258206 150.42142106083338 A 17.828891426324844 17.828891426324844 0 1 1 696.0026917113755 150.40359217237852" stroke-miterlimit="10" stroke-dasharray=""/>
      <text fill="none" stroke="white" font-family="arial" font-size="14px" font-style="normal" font-weight="normal" text-decoration="undefined" x="381.59540999113347" y="-94.87100138708365" text-anchor="start" dominant-baseline="central" transform="matrix(0.8914445713162422 0 0 0.8914445713162422 347.1391296386719 222.3867301940918)" stroke-linejoin="round" stroke-miterlimit="10" stroke-width="1.7828891426324844" stroke-dasharray="">1</text>
      <text fill="black" stroke="none" font-family="arial" font-size="14px" font-style="normal" font-weight="normal" text-decoration="undefined" x="381.59540999113347" y="-94.87100138708365" text-anchor="start" dominant-baseline="central" transform="matrix(0.8914445713162422 0 0 0.8914445713162422 347.1391296386719 222.3867301940918)">1</text>
      <path fill="none" stroke="black" paint-order="fill stroke markers" d=" M 207.17411348542944 153.84613056814248 Q 234.40665989115732 102.3287640037151 233.9849326001349 44.900103087251125" stroke-linejoin="round" stroke-miterlimit="10" stroke-dasharray=""/>
      <g>
        <text fill="none" stroke="white" font-family="arial" font-size="14px" font-style="normal" font-weight="normal" text-decoration="undefined" x="-138.10896947136317" y="-136.33577867767477" text-anchor="start" dominant-baseline="central" transform="matrix(0.8914445713162422 0 0 0.8914445713162422 347.1391296386719 222.3867301940918)" stroke-linejoin="round" stroke-miterlimit="10" stroke-width="1.7828891426324844" stroke-dasharray="">1</text>
        <text fill="black" stroke="none" font-family="arial" font-size="14px" font-style="normal" font-weight="normal" text-decoration="undefined" x="-138.10896947136317" y="-136.33577867767477" text-anchor="start" dominant-baseline="central" transform="matrix(0.8914445713162422 0 0 0.8914445713162422 347.1391296386719 222.3867301940918)">1</text>
      </g>
      <path fill="none" stroke="black" paint-order="fill stroke markers" d=" M 156.53329446896325 373.00873333339143 Q 224.12620480263493 398.6236677920652 296.5211507048887 376.7284383940327" stroke-linejoin="round" stroke-miterlimit="10" stroke-dasharray=""/>
      <g>
        <text fill="none" stroke="white" font-family="arial" font-size="14px" font-style="normal" font-weight="normal" text-decoration="undefined" x="-140.53915732812533" y="184.3742190174715" text-anchor="start" dominant-baseline="central" transform="matrix(0.8914445713162422 0 0 0.8914445713162422 347.1391296386719 222.3867301940918)" stroke-linejoin="round" stroke-miterlimit="10" stroke-width="1.7828891426324844" stroke-dasharray="">1</text>
        <text fill="black" stroke="none" font-family="arial" font-size="14px" font-style="normal" font-weight="normal" text-decoration="undefined" x="-140.53915732812533" y="184.3742190174715" text-anchor="start" dominant-baseline="central" transform="matrix(0.8914445713162422 0 0 0.8914445713162422 347.1391296386719 222.3867301940918)">1</text>
      </g>
      <path fill="none" stroke="black" paint-order="fill stroke markers" d=" M 419.3195997680415 335.728622274479 Q 436.16452920112107 270.300503346469 427.020979473327 199.32030152139896" stroke-linejoin="round" stroke-miterlimit="10" stroke-dasharray=""/>
      <g>
        <text fill="none" stroke="white" font-family="arial" font-size="14px" font-style="normal" font-weight="normal" text-decoration="undefined" x="88.6850729730448" y="52.19141371786655" text-anchor="start" dominant-baseline="central" transform="matrix(0.8914445713162422 0 0 0.8914445713162422 347.1391296386719 222.3867301940918)" stroke-linejoin="round" stroke-miterlimit="10" stroke-width="1.7828891426324844" stroke-dasharray="">1</text>
        <text fill="black" stroke="none" font-family="arial" font-size="14px" font-style="normal" font-weight="normal" text-decoration="undefined" x="88.6850729730448" y="52.19141371786655" text-anchor="start" dominant-baseline="central" transform="matrix(0.8914445713162422 0 0 0.8914445713162422 347.1391296386719 222.3867301940918)">1</text>
      </g>
      <path fill="none" stroke="black" paint-order="fill stroke markers" d=" M 217.30980933530455 292.68233146493503 Q 164.76186554201513 266.9623596637489 113.87101242257924 236.47310113662962" stroke-linejoin="round" stroke-miterlimit="10" stroke-dasharray=""/>
      <g>
        <text fill="none" stroke="white" font-family="arial" font-size="14px" font-style="normal" font-weight="normal" text-decoration="undefined" x="-208.01455335357647" y="48.666298706735276" text-anchor="start" dominant-baseline="central" transform="matrix(0.8914445713162422 0 0 0.8914445713162422 347.1391296386719 222.3867301940918)" stroke-linejoin="round" stroke-miterlimit="10" stroke-width="1.7828891426324844" stroke-dasharray="">1</text>
        <text fill="black" stroke="none" font-family="arial" font-size="14px" font-style="normal" font-weight="normal" text-decoration="undefined" x="-208.01455335357647" y="48.666298706735276" text-anchor="start" dominant-baseline="central" transform="matrix(0.8914445713162422 0 0 0.8914445713162422 347.1391296386719 222.3867301940918)">1</text>
      </g>
      <path fill="none" stroke="black" paint-order="fill stroke markers" d=" M 111.00598169107198 97.79576886312343 Q 90.95151781373136 165.81166753744156 113.87101242257924 236.47310113662962" stroke-linejoin="round" stroke-miterlimit="10" stroke-dasharray=""/>
      <g>
        <text fill="none" stroke="white" font-family="arial" font-size="14px" font-style="normal" font-weight="normal" text-decoration="undefined" x="-279.2260821662635" y="-62.722552500235295" text-anchor="start" dominant-baseline="central" transform="matrix(0.8914445713162422 0 0 0.8914445713162422 347.1391296386719 222.3867301940918)" stroke-linejoin="round" stroke-miterlimit="10" stroke-width="1.7828891426324844" stroke-dasharray="">1</text>
        <text fill="black" stroke="none" font-family="arial" font-size="14px" font-style="normal" font-weight="normal" text-decoration="undefined" x="-279.2260821662635" y="-62.722552500235295" text-anchor="start" dominant-baseline="central" transform="matrix(0.8914445713162422 0 0 0.8914445713162422 347.1391296386719 222.3867301940918)">1</text>
      </g>
      <path fill="none" stroke="black" paint-order="fill stroke markers" d=" M 359.7521016879727 81.31737128099604 Q 399.35294825430367 134.3577503908893 427.020979473327 199.32030152139896" stroke-linejoin="round" stroke-miterlimit="10" stroke-dasharray=""/>
      <g>
        <text fill="none" stroke="white" font-family="arial" font-size="14px" font-style="normal" font-weight="normal" text-decoration="undefined" x="51.33259356508678" y="-95.40518786543515" text-anchor="start" dominant-baseline="central" transform="matrix(0.8914445713162422 0 0 0.8914445713162422 347.1391296386719 222.3867301940918)" stroke-linejoin="round" stroke-miterlimit="10" stroke-width="1.7828891426324844" stroke-dasharray="">1</text>
        <text fill="black" stroke="none" font-family="arial" font-size="14px" font-style="normal" font-weight="normal" text-decoration="undefined" x="51.33259356508678" y="-95.40518786543515" text-anchor="start" dominant-baseline="central" transform="matrix(0.8914445713162422 0 0 0.8914445713162422 347.1391296386719 222.3867301940918)">1</text>
      </g>
      <path fill="none" stroke="black" paint-order="fill stroke markers" d=" M 337.9902308676611 260.1383916325751 Q 324.86551461188594 319.3023080181989 296.5211507048887 376.7284383940327" stroke-linejoin="round" stroke-miterlimit="10" stroke-dasharray=""/>
      <g>
        <text fill="none" stroke="white" font-family="arial" font-size="14px" font-style="normal" font-weight="normal" text-decoration="undefined" x="-33.14729911876265" y="108.23009576378104" text-anchor="start" dominant-baseline="central" transform="matrix(0.8914445713162422 0 0 0.8914445713162422 347.1391296386719 222.3867301940918)" stroke-linejoin="round" stroke-miterlimit="10" stroke-width="1.7828891426324844" stroke-dasharray="">1</text>
        <text fill="black" stroke="none" font-family="arial" font-size="14px" font-style="normal" font-weight="normal" text-decoration="undefined" x="-33.14729911876265" y="108.23009576378104" text-anchor="start" dominant-baseline="central" transform="matrix(0.8914445713162422 0 0 0.8914445713162422 347.1391296386719 222.3867301940918)">1</text>
      </g>
      <path fill="none" stroke="black" paint-order="fill stroke markers" d=" M 548.3057407470983 177.3238856969765 Q 606.1315214262684 172.69690385479691 661.7553895537728 166.83984070655623" stroke-linejoin="round" stroke-miterlimit="10" stroke-dasharray=""/>
      <g>
        <text fill="none" stroke="white" font-family="arial" font-size="14px" font-style="normal" font-weight="normal" text-decoration="undefined" x="286.02054344173365" y="-56.08576043262871" text-anchor="start" dominant-baseline="central" transform="matrix(0.8914445713162422 0 0 0.8914445713162422 347.1391296386719 222.3867301940918)" stroke-linejoin="round" stroke-miterlimit="10" stroke-width="1.7828891426324844" stroke-dasharray="">1</text>
        <text fill="black" stroke="none" font-family="arial" font-size="14px" font-style="normal" font-weight="normal" text-decoration="undefined" x="286.02054344173365" y="-56.08576043262871" text-anchor="start" dominant-baseline="central" transform="matrix(0.8914445713162422 0 0 0.8914445713162422 347.1391296386719 222.3867301940918)">1</text>
      </g>
      <path fill="#bcfe58" stroke="black" paint-order="stroke fill markers" d=" M 34.1023932138807 236.47310113662962 C 34.1023932138807 226.6264754010201 69.81601651662703 218.64420971030478 113.87101242257924 218.64420971030478 C 157.92600832853142 218.64420971030478 193.63963163127775 226.6264754010201 193.63963163127775 236.47310113662962 C 193.63963163127775 246.31972687223916 157.92600832853142 254.30199256295447 113.87101242257924 254.30199256295447 C 69.81601651662703 254.30199256295447 34.1023932138807 246.31972687223916 34.1023932138807 236.47310113662962 Z" stroke-linejoin="round" stroke-miterlimit="10" stroke-width="1.1249999652061466" stroke-dasharray=""/>
      <g fill="#bcfe58"/>
      <g stroke="black" stroke-linejoin="round" stroke-miterlimit="10" stroke-width="1.1249999652061466" stroke-dasharray=""/>
      <text fill="black" stroke="none" font-family="arial" font-size="20px" font-style="normal" font-weight="normal" text-decoration="undefined" x="-341.156702836368" y="15.801735066644598" text-anchor="start" dominant-baseline="central" transform="matrix(0.8914445713162422 0 0 0.8914445713162422 347.1391296386719 222.3867301940918)">init,green light,still</text>
      <path fill="#ec9393" stroke="black" paint-order="stroke fill markers" d=" M 240.5403468391749 376.7284383940327 C 240.5403468391749 366.8818126584232 265.6038036380737 358.89954696770786 296.5211507048887 358.89954696770786 C 327.4384977717037 358.89954696770786 352.50195457060255 366.8818126584232 352.50195457060255 376.7284383940327 C 352.50195457060255 386.5750641296422 327.4384977717037 394.55732982035755 296.5211507048887 394.55732982035755 C 265.6038036380737 394.55732982035755 240.5403468391749 386.5750641296422 240.5403468391749 376.7284383940327 Z" stroke-linejoin="round" stroke-miterlimit="10" stroke-width="1.1249999652061466" stroke-dasharray=""/>
      <g fill="#ec9393"/>
      <g stroke="black" stroke-linejoin="round" stroke-miterlimit="10" stroke-width="1.1249999652061466" stroke-dasharray=""/>
      <text fill="black" stroke="none" font-family="arial" font-size="20px" font-style="normal" font-weight="normal" text-decoration="undefined" x="-109.57982159462924" y="173.13662920404707" text-anchor="start" dominant-baseline="central" transform="matrix(0.8914445713162422 0 0 0.8914445713162422 347.1391296386719 222.3867301940918)">red light,still</text>
      <path fill="#bcfe58" stroke="black" paint-order="stroke fill markers" d=" M 152.2271035814192 44.900103087251125 C 152.2271035814192 35.05347735164159 188.8313263520993 27.07121166092628 233.9849326001349 27.07121166092628 C 279.13853884817047 27.07121166092628 315.74276161885064 35.05347735164159 315.74276161885064 44.900103087251125 C 315.74276161885064 54.74672882286066 279.13853884817047 62.72899451357597 233.9849326001349 62.72899451357597 C 188.8313263520993 62.72899451357597 152.2271035814192 54.74672882286066 152.2271035814192 44.900103087251125 Z" stroke-linejoin="round" stroke-miterlimit="10" stroke-width="1.1249999652061466" stroke-dasharray=""/>
      <g fill="#bcfe58"/>
      <g stroke="black" stroke-linejoin="round" stroke-miterlimit="10" stroke-width="1.1249999652061466" stroke-dasharray=""/>
      <text fill="black" stroke="none" font-family="arial" font-size="20px" font-style="normal" font-weight="normal" text-decoration="undefined" x="-208.64738686944918" y="-199.10001453570672" text-anchor="start" dominant-baseline="central" transform="matrix(0.8914445713162422 0 0 0.8914445713162422 347.1391296386719 222.3867301940918)">green light,moving</text>
      <path fill="#ec9393" stroke="black" paint-order="stroke fill markers" d=" M 355.1787302078261 199.32030152139896 C 355.1787302078261 189.47367578578942 387.34359720617965 181.49141009507412 427.020979473327 181.49141009507412 C 466.6983617404743 181.49141009507412 498.86322873882784 189.47367578578942 498.86322873882784 199.32030152139896 C 498.86322873882784 209.1669272570085 466.6983617404743 217.1491929477238 427.020979473327 217.1491929477238 C 387.34359720617965 217.1491929477238 355.1787302078261 209.1669272570085 355.1787302078261 199.32030152139896 Z" stroke-linejoin="round" stroke-miterlimit="10" stroke-width="1.1249999652061466" stroke-dasharray=""/>
      <g fill="#ec9393"/>
      <g stroke="black" stroke-linejoin="round" stroke-miterlimit="10" stroke-width="1.1249999652061466" stroke-dasharray=""/>
      <text fill="black" stroke="none" font-family="arial" font-size="20px" font-style="normal" font-weight="normal" text-decoration="undefined" x="19.01862081821143" y="-25.87533696978448" text-anchor="start" dominant-baseline="central" transform="matrix(0.8914445713162422 0 0 0.8914445713162422 347.1391296386719 222.3867301940918)">red light,moving</text>
      <path fill="#000000" stroke="black" paint-order="stroke fill markers" d=" M 619.6381157644371 166.83984070655623 C 619.6381157644371 156.99321497094672 638.4946594224843 149.0109492802314 661.7553895537728 149.0109492802314 C 685.0161196850614 149.0109492802314 703.8726633431086 156.99321497094672 703.8726633431086 166.83984070655623 C 703.8726633431086 176.6864664421658 685.0161196850614 184.66873213288108 661.7553895537728 184.66873213288108 C 638.4946594224843 184.66873213288108 619.6381157644371 176.6864664421658 619.6381157644371 166.83984070655623 Z" stroke-linejoin="round" stroke-miterlimit="10" stroke-width="1.1249999652061466" stroke-dasharray=""/>
      <g fill="#000000"/>
      <g stroke="black" stroke-linejoin="round" stroke-miterlimit="10" stroke-width="1.1249999652061466" stroke-dasharray=""/>
      <text fill="#ffffff" stroke="none" font-family="arial" font-size="20px" font-style="normal" font-weight="normal" text-decoration="undefined" x="315.6824786351137" y="-62.31109737481385" text-anchor="start" dominant-baseline="central" transform="matrix(0.8914445713162422 0 0 0.8914445713162422 347.1391296386719 222.3867301940918)">accident</text>
      <path fill="lightblue" stroke="black" paint-order="stroke fill markers" d=" M 166.93636003737473 140.47446199839885 L 247.41186693348416 140.47446199839885 L 247.41186693348416 140.47446199839885 A 5.348667427897453 5.348667427897453 0 0 1 252.76053436138162 145.8231294262963 L 252.76053436138162 161.86913170998864 L 252.76053436138162 161.86913170998864 A 5.348667427897453 5.348667427897453 0 0 1 247.41186693348416 167.2177991378861 L 166.93636003737473 167.2177991378861 L 166.93636003737473 167.2177991378861 A 5.348667427897453 5.348667427897453 0 0 1 161.58769260947727 161.86913170998864 L 161.58769260947727 145.8231294262963 L 161.58769260947727 145.8231294262963 A 5.348667427897453 5.348667427897453 0 0 1 166.93636003737473 140.47446199839885 Z" stroke-linejoin="round" stroke-miterlimit="10" stroke-width="1.1249999652061466" stroke-dasharray=""/>
      <g fill="lightblue"/>
      <g stroke="black" stroke-linejoin="round" stroke-miterlimit="10" stroke-width="1.1249999652061466" stroke-dasharray=""/>
      <text fill="black" stroke="none" font-family="arial" font-size="20px" font-style="normal" font-weight="normal" text-decoration="undefined" x="-203.14691456948674" y="-76.88711315471613" text-anchor="start" dominant-baseline="central" transform="matrix(0.8914445713162422 0 0 0.8914445713162422 347.1391296386719 222.3867301940918)">accelerate</text>
      <path fill="lightblue" stroke="black" paint-order="stroke fill markers" d=" M 141.5719991538842 359.6370647636478 L 171.4945897840423 359.6370647636478 L 171.4945897840423 359.6370647636478 A 5.348667427897453 5.348667427897453 0 0 1 176.84325721193974 364.98573219154525 L 176.84325721193974 381.0317344752376 L 176.84325721193974 381.0317344752376 A 5.348667427897453 5.348667427897453 0 0 1 171.4945897840423 386.38040190313507 L 141.5719991538842 386.38040190313507 L 141.5719991538842 386.38040190313507 A 5.348667427897453 5.348667427897453 0 0 1 136.22333172598675 381.0317344752376 L 136.22333172598675 364.98573219154525 L 136.22333172598675 364.98573219154525 A 5.348667427897453 5.348667427897453 0 0 1 141.5719991538842 359.6370647636478 Z" stroke-linejoin="round" stroke-miterlimit="10" stroke-width="1.1249999652061466" stroke-dasharray=""/>
      <g fill="lightblue"/>
      <g stroke="black" stroke-linejoin="round" stroke-miterlimit="10" stroke-width="1.1249999652061466" stroke-dasharray=""/>
      <text fill="black" stroke="none" font-family="arial" font-size="20px" font-style="normal" font-weight="normal" text-decoration="undefined" x="-231.60001384187262" y="168.96395803600228" text-anchor="start" dominant-baseline="central" transform="matrix(0.8914445713162422 0 0 0.8914445713162422 347.1391296386719 222.3867301940918)">wait</text>
      <path fill="lightblue" stroke="black" paint-order="stroke fill markers" d=" M 379.08184631998677 322.35695370473536 L 459.5573532160962 322.35695370473536 L 459.5573532160962 322.35695370473536 A 5.348667427897453 5.348667427897453 0 0 1 464.90602064399366 327.7056211326328 L 464.90602064399366 343.7516234163252 L 464.90602064399366 343.7516234163252 A 5.348667427897453 5.348667427897453 0 0 1 459.5573532160962 349.1002908442226 L 379.08184631998677 349.1002908442226 L 379.08184631998677 349.1002908442226 A 5.348667427897453 5.348667427897453 0 0 1 373.7331788920893 343.7516234163252 L 373.7331788920893 327.7056211326328 L 373.7331788920893 327.7056211326328 A 5.348667427897453 5.348667427897453 0 0 1 379.08184631998677 322.35695370473536 Z" stroke-linejoin="round" stroke-miterlimit="10" stroke-width="1.1249999652061466" stroke-dasharray=""/>
      <g fill="lightblue"/>
      <g stroke="black" stroke-linejoin="round" stroke-miterlimit="10" stroke-width="1.1249999652061466" stroke-dasharray=""/>
      <text fill="black" stroke="none" font-family="arial" font-size="20px" font-style="normal" font-weight="normal" text-decoration="undefined" x="34.83253262078941" y="127.14407123825409" text-anchor="start" dominant-baseline="central" transform="matrix(0.8914445713162422 0 0 0.8914445713162422 347.1391296386719 222.3867301940918)">accelerate</text>
      <path fill="lightblue" stroke="black" paint-order="stroke fill markers" d=" M 202.3485140202255 279.3106628951914 L 232.27110465038356 279.3106628951914 L 232.27110465038356 279.3106628951914 A 5.348667427897453 5.348667427897453 0 0 1 237.61977207828102 284.65933032308885 L 237.61977207828102 300.7053326067812 L 237.61977207828102 300.7053326067812 A 5.348667427897453 5.348667427897453 0 0 1 232.27110465038356 306.05400003467867 L 202.3485140202255 306.05400003467867 L 202.3485140202255 306.05400003467867 A 5.348667427897453 5.348667427897453 0 0 1 196.99984659232805 300.7053326067812 L 196.99984659232805 284.65933032308885 L 196.99984659232805 284.65933032308885 A 5.348667427897453 5.348667427897453 0 0 1 202.3485140202255 279.3106628951914 Z" stroke-linejoin="round" stroke-miterlimit="10" stroke-width="1.1249999652061466" stroke-dasharray=""/>
      <g fill="lightblue"/>
      <g stroke="black" stroke-linejoin="round" stroke-miterlimit="10" stroke-width="1.1249999652061466" stroke-dasharray=""/>
      <text fill="black" stroke="none" font-family="arial" font-size="20px" font-style="normal" font-weight="normal" text-decoration="undefined" x="-163.42245483043223" y="78.85582966426043" text-anchor="start" dominant-baseline="central" transform="matrix(0.8914445713162422 0 0 0.8914445713162422 347.1391296386719 222.3867301940918)">wait</text>
      <path fill="lightblue" stroke="black" paint-order="stroke fill markers" d=" M 89.5982537093945 84.42410029337978 L 132.41370967274943 84.42410029337978 L 132.41370967274943 84.42410029337978 A 5.348667427897453 5.348667427897453 0 0 1 137.7623771006469 89.77276772127723 L 137.7623771006469 105.81877000496961 L 137.7623771006469 105.81877000496961 A 5.348667427897453 5.348667427897453 0 0 1 132.41370967274943 111.16743743286706 L 89.5982537093945 111.16743743286706 L 89.5982537093945 111.16743743286706 A 5.348667427897453 5.348667427897453 0 0 1 84.24958628149705 105.81877000496961 L 84.24958628149705 89.77276772127723 L 84.24958628149705 89.77276772127723 A 5.348667427897453 5.348667427897453 0 0 1 89.5982537093945 84.42410029337978 Z" stroke-linejoin="round" stroke-miterlimit="10" stroke-width="1.1249999652061466" stroke-dasharray=""/>
      <g fill="lightblue"/>
      <g stroke="black" stroke-linejoin="round" stroke-miterlimit="10" stroke-width="1.1249999652061466" stroke-dasharray=""/>
      <text fill="black" stroke="none" font-family="arial" font-size="20px" font-style="normal" font-weight="normal" text-decoration="undefined" x="-289.9028484956852" y="-139.76299294414505" text-anchor="start" dominant-baseline="central" transform="matrix(0.8914445713162422 0 0 0.8914445713162422 347.1391296386719 222.3867301940918)">brake</text>
      <path fill="lightblue" stroke="black" paint-order="stroke fill markers" d=" M 344.79080637289366 67.94570271125241 L 374.71339700305174 67.94570271125241 L 374.71339700305174 67.94570271125241 A 5.348667427897453 5.348667427897453 0 0 1 380.0620644309492 73.29437013914986 L 380.0620644309492 89.34037242284222 L 380.0620644309492 89.34037242284222 A 5.348667427897453 5.348667427897453 0 0 1 374.71339700305174 94.68903985073968 L 344.79080637289366 94.68903985073968 L 344.79080637289366 94.68903985073968 A 5.348667427897453 5.348667427897453 0 0 1 339.4421389449962 89.34037242284222 L 339.4421389449962 73.29437013914986 L 339.4421389449962 73.29437013914986 A 5.348667427897453 5.348667427897453 0 0 1 344.79080637289366 67.94570271125241 Z" stroke-linejoin="round" stroke-miterlimit="10" stroke-width="1.1249999652061466" stroke-dasharray=""/>
      <g fill="lightblue"/>
      <g stroke="black" stroke-linejoin="round" stroke-miterlimit="10" stroke-width="1.1249999652061466" stroke-dasharray=""/>
      <text fill="black" stroke="none" font-family="arial" font-size="20px" font-style="normal" font-weight="normal" text-decoration="undefined" x="-3.6342897150754396" y="-158.24804306655096" text-anchor="start" dominant-baseline="central" transform="matrix(0.8914445713162422 0 0 0.8914445713162422 347.1391296386719 222.3867301940918)">wait</text>
      <path fill="lightblue" stroke="black" paint-order="stroke fill markers" d=" M 316.5825028859837 246.7667230628315 L 359.3979588493386 246.7667230628315 L 359.3979588493386 246.7667230628315 A 5.348667427897453 5.348667427897453 0 0 1 364.74662627723603 252.11539049072894 L 364.74662627723603 268.1613927744213 L 364.74662627723603 268.1613927744213 A 5.348667427897453 5.348667427897453 0 0 1 359.3979588493386 273.51006020231875 L 316.5825028859837 273.51006020231875 L 316.5825028859837 273.51006020231875 A 5.348667427897453 5.348667427897453 0 0 1 311.2338354580862 268.1613927744213 L 311.2338354580862 252.11539049072894 L 311.2338354580862 252.11539049072894 A 5.348667427897453 5.348667427897453 0 0 1 316.5825028859837 246.7667230628315 Z" stroke-linejoin="round" stroke-miterlimit="10" stroke-width="1.1249999652061466" stroke-dasharray=""/>
      <g fill="lightblue"/>
      <g stroke="black" stroke-linejoin="round" stroke-miterlimit="10" stroke-width="1.1249999652061466" stroke-dasharray=""/>
      <text fill="black" stroke="none" font-family="arial" font-size="20px" font-style="normal" font-weight="normal" text-decoration="undefined" x="-35.277651954928054" y="42.348860101017785" text-anchor="start" dominant-baseline="central" transform="matrix(0.8914445713162422 0 0 0.8914445713162422 347.1391296386719 222.3867301940918)">brake</text>
      <path fill="lightblue" stroke="black" paint-order="stroke fill markers" d=" M 533.3444454320193 163.95221712723287 L 563.2670360621773 163.95221712723287 L 563.2670360621773 163.95221712723287 A 5.348667427897453 5.348667427897453 0 0 1 568.6157034900748 169.30088455513032 L 568.6157034900748 185.34688683882268 L 568.6157034900748 185.34688683882268 A 5.348667427897453 5.348667427897453 0 0 1 563.2670360621773 190.6955542667201 L 533.3444454320193 190.6955542667201 L 533.3444454320193 190.6955542667201 A 5.348667427897453 5.348667427897453 0 0 1 527.9957780041218 185.34688683882268 L 527.9957780041218 169.30088455513032 L 527.9957780041218 169.30088455513032 A 5.348667427897453 5.348667427897453 0 0 1 533.3444454320193 163.95221712723287 Z" stroke-linejoin="round" stroke-miterlimit="10" stroke-width="1.1249999652061466" stroke-dasharray=""/>
      <g fill="lightblue"/>
      <g stroke="black" stroke-linejoin="round" stroke-miterlimit="10" stroke-width="1.1249999652061466" stroke-dasharray=""/>
      <text fill="black" stroke="none" font-family="arial" font-size="20px" font-style="normal" font-weight="normal" text-decoration="undefined" x="207.88041924851265" y="-50.55036055755973" text-anchor="start" dominant-baseline="central" transform="matrix(0.8914445713162422 0 0 0.8914445713162422 347.1391296386719 222.3867301940918)">wait</text>
      <path fill="black" stroke="none" paint-order="stroke fill markers" d=" M 190.16698094801828 167.78324881498622 L 181.0104246146459 181.81194591906475 L 179.13152322495742 177.09843889173865 L 174.80029789681092 174.45497410369086 Z"/>
      <path fill="black" stroke="none" paint-order="stroke fill markers" d=" M 147.21183211239858 358.85516324196635 L 135.1692687270513 347.2094115086476 L 140.1531586455945 346.2563846419382 L 143.56845446040336 342.50362919744487 Z"/>
      <path fill="black" stroke="none" paint-order="stroke fill markers" d=" M 400.048120854715 349.6949999710303 L 388.4687767081331 361.80143030615477 L 387.4883539534239 356.8228572022549 L 383.71687188731664 353.42825237196064 Z"/>
      <path fill="black" stroke="none" paint-order="stroke fill markers" d=" M 229.50066273063425 306.65015748951225 L 243.7985331037617 315.3804363577643 L 239.14369763098898 317.40031894104555 L 236.6317588027395 321.8091262913341 Z"/>
      <path fill="black" stroke="none" paint-order="stroke fill markers" d=" M 129.04100249126554 83.84704320085086 L 139.90739198317354 71.0968100369297 L 141.17156533252785 76.01100220570049 L 145.1314193132738 79.18385193110458 Z"/>
      <path fill="black" stroke="none" paint-order="stroke fill markers" d=" M 338.68037080886745 69.96498270204427 L 322.05690176415135 67.88961689246528 L 325.4686521192728 64.13363786654477 L 325.9444649878177 59.08180443273551 Z"/>
      <path fill="black" stroke="none" paint-order="stroke fill markers" d=" M 348.97918093648497 246.07035043731798 L 356.80620176795014 231.2587127416405 L 359.11079646506437 235.77936116978205 L 363.6668612796407 238.01312309402675 Z"/>
      <path fill="black" stroke="none" paint-order="stroke fill markers" d=" M 526.9408220324883 180.41339016013626 L 511.8473865874172 187.68216397624 L 512.6778304444956 182.67638911823184 L 510.3387206153535 178.17350291757822 Z"/>
      <path fill="black" stroke="none" paint-order="stroke fill markers" d=" M 695.065108259098 156.12697848940778 L 690.4375790069208 140.0262692086199 L 695.2324616341928 141.68654614922713 L 700.0645339003746 140.13783812534973 Z"/>
      <path fill="black" stroke="none" paint-order="stroke fill markers" d=" M 233.44156921215483 62.70224091387962 L 236.55688003168115 79.16254786186653 L 231.93652046134497 77.06500254182487 L 226.981705613051 78.15918202799327 Z"/>
      <path fill="black" stroke="none" paint-order="stroke fill markers" d=" M 248.97578115711224 386.0304929829254 L 233.18007076961538 391.6110305626329 L 234.55111648255425 386.72557740229473 L 232.71668115670246 381.9945874462609 Z"/>
      <path fill="black" stroke="none" paint-order="stroke fill markers" d=" M 428.90079691838685 216.9786006823999 L 434.705333029443 232.69337802284124 L 429.80088188905785 231.39192577999842 L 425.096449631044 233.29343466995525 Z"/>
      <path fill="black" stroke="none" paint-order="stroke fill markers" d=" M 142.4275891558818 253.13217386148514 L 158.779275802013 256.77486656756673 L 155.02666342274054 260.19031957701617 L 154.07384532499228 265.1742494121392 Z"/>
      <path fill="black" stroke="none" paint-order="stroke fill markers" d=" M 108.81260687171397 218.8490792200337 L 100.73875840795921 204.1705289745725 L 105.78209765051693 204.7292312327595 L 110.15199039947532 202.1501894937745 Z"/>
      <path fill="black" stroke="none" paint-order="stroke fill markers" d=" M 419.1179572263419 181.53260602489075 L 407.83827258267206 169.1465016872242 L 412.87257373264197 168.5114970728809 L 416.51901188401195 164.98291269142425 Z"/>
      <path fill="black" stroke="none" paint-order="stroke fill markers" d=" M 304.80409709187313 359.1910826831938 L 306.76494345144505 342.5537166693574 L 310.54432695182777 345.93952222872747 L 315.59931708775594 346.3805365759938 Z"/>
      <path fill="black" stroke="none" paint-order="stroke fill markers" d=" M 620.6097348823396 170.97527370182863 L 605.0846194599574 177.2695296106643 L 606.2317046295601 172.32669494394688 L 604.1836719652118 167.6841761088113 Z"/>
    </g>
  </g>
</svg>
