<?xml version='1.0' encoding='utf-8'?>
<svg xmlns="http://www.w3.org/2000/svg" xmlns:xlink="http://www.w3.org/1999/xlink" version="1.1" width="800" height="496.0803392496902" viewBox="0 0 859.0908790887916 532.7226184308529">
  <defs/>
  <g>
    <rect fill="#FFFFFF" stroke="none" x="0" y="0" width="800" height="600" transform="matrix(1.125 0 0 1.125 0 0)"/>
    <g>
      <path fill="none" stroke="black" paint-order="fill stroke markers" d=" M 88.8631848692894 337.5 Q 150.87507542967796 306.4940547198057 212.88696599006653 275.48810943961143" stroke-miterlimit="10" stroke-dasharray=""/>
      <path fill="none" stroke="black" paint-order="fill stroke markers" d=" M 88.8631848692894 337.5 Q 150.87507542967796 368.5059452801943 212.88696599006653 399.51189056038857" stroke-miterlimit="10" stroke-dasharray=""/>
      <path fill="none" stroke="black" paint-order="fill stroke markers" d=" M 336.91074711084366 399.51189056038857 Q 398.9226376712322 399.51189056038857 460.9345282316208 399.51189056038857" stroke-miterlimit="10" stroke-dasharray=""/>
      <path fill="none" stroke="black" paint-order="fill stroke markers" d=" M 336.91074711084366 399.51189056038857 Q 398.9226376712322 461.52378112077713 460.9345282316208 523.5356716811657" stroke-miterlimit="10" stroke-dasharray=""/>
      <path fill="none" stroke="black" paint-order="fill stroke markers" d=" M 336.91074711084366 275.48810943961143 Q 398.9226376712322 213.47621887922287 460.9345282316208 151.4643283188343" stroke-miterlimit="10" stroke-dasharray=""/>
      <path fill="none" stroke="black" paint-order="fill stroke markers" d=" M 336.91074711084366 275.48810943961143 Q 398.9226376712322 275.48810943961143 460.9345282316208 275.48810943961143" stroke-miterlimit="10" stroke-dasharray=""/>
      <path fill="none" stroke="black" paint-order="fill stroke markers" d=" M 584.9583093523979 337.5 Q 647.3529893606901 306.4940547198057 709.7476693689823 275.48810943961143" stroke-miterlimit="10" stroke-dasharray=""/>
      <path fill="none" stroke="black" paint-order="fill stroke markers" d=" M 584.9583093523979 337.5 Q 647.3529893606901 368.5059452801943 709.7476693689823 399.51189056038857" stroke-miterlimit="10" stroke-dasharray=""/>
      <path fill="none" stroke="black" paint-order="fill stroke markers" d=" M 858.9532067561969 327.62982164970794 A 15.311577916145325 15.311577916145325 0 1 1 858.9531991004085 327.6145100743437" stroke-miterlimit="10" stroke-dasharray=""/>
      <text fill="none" stroke="white" font-family="arial" font-size="14px" font-style="normal" font-weight="normal" text-decoration="undefined" x="522.1415070894582" y="-27.034573495708145" text-anchor="start" dominant-baseline="central" transform="matrix(0.7655788958072662 0 0 0.7655788958072662 451.7475814819336 337.5)" stroke-linejoin="round" stroke-miterlimit="10" stroke-width="1.5311577916145325" stroke-dasharray="">1</text>
      <text fill="black" stroke="none" font-family="arial" font-size="14px" font-style="normal" font-weight="normal" text-decoration="undefined" x="522.1415070894582" y="-27.034573495708145" text-anchor="start" dominant-baseline="central" transform="matrix(0.7655788958072662 0 0 0.7655788958072662 451.7475814819336 337.5)">1</text>
      <path fill="none" stroke="black" paint-order="fill stroke markers" d=" M 212.88696599006653 275.48810943961143 Q 274.8988565504551 275.48810943961143 336.91074711084366 275.48810943961143" stroke-linejoin="round" stroke-miterlimit="10" stroke-dasharray=""/>
      <g>
        <text fill="none" stroke="white" font-family="arial" font-size="14px" font-style="normal" font-weight="normal" text-decoration="undefined" x="-234.89306640625" y="-81" text-anchor="start" dominant-baseline="central" transform="matrix(0.7655788958072662 0 0 0.7655788958072662 451.7475814819336 337.5)" stroke-linejoin="round" stroke-miterlimit="10" stroke-width="1.5311577916145325" stroke-dasharray="">1</text>
        <text fill="black" stroke="none" font-family="arial" font-size="14px" font-style="normal" font-weight="normal" text-decoration="undefined" x="-234.89306640625" y="-81" text-anchor="start" dominant-baseline="central" transform="matrix(0.7655788958072662 0 0 0.7655788958072662 451.7475814819336 337.5)">1</text>
      </g>
      <path fill="none" stroke="black" paint-order="fill stroke markers" d=" M 212.88696599006653 399.51189056038857 Q 274.8988565504551 399.51189056038857 336.91074711084366 399.51189056038857" stroke-linejoin="round" stroke-miterlimit="10" stroke-dasharray=""/>
      <g>
        <text fill="none" stroke="white" font-family="arial" font-size="14px" font-style="normal" font-weight="normal" text-decoration="undefined" x="-234.89306640625" y="81" text-anchor="start" dominant-baseline="central" transform="matrix(0.7655788958072662 0 0 0.7655788958072662 451.7475814819336 337.5)" stroke-linejoin="round" stroke-miterlimit="10" stroke-width="1.5311577916145325" stroke-dasharray="">1</text>
        <text fill="black" stroke="none" font-family="arial" font-size="14px" font-style="normal" font-weight="normal" text-decoration="undefined" x="-234.89306640625" y="81" text-anchor="start" dominant-baseline="central" transform="matrix(0.7655788958072662 0 0 0.7655788958072662 451.7475814819336 337.5)">1</text>
      </g>
      <path fill="none" stroke="black" paint-order="fill stroke markers" d=" M 460.9345282316208 399.51189056038857 Q 522.9464187920094 368.5059452801943 584.9583093523979 337.5" stroke-linejoin="round" stroke-miterlimit="10" stroke-dasharray=""/>
      <g>
        <text fill="none" stroke="white" font-family="arial" font-size="14px" font-style="normal" font-weight="normal" text-decoration="undefined" x="89.10693359375" y="40.5" text-anchor="start" dominant-baseline="central" transform="matrix(0.7655788958072662 0 0 0.7655788958072662 451.7475814819336 337.5)" stroke-linejoin="round" stroke-miterlimit="10" stroke-width="1.5311577916145325" stroke-dasharray="">1</text>
        <text fill="black" stroke="none" font-family="arial" font-size="14px" font-style="normal" font-weight="normal" text-decoration="undefined" x="89.10693359375" y="40.5" text-anchor="start" dominant-baseline="central" transform="matrix(0.7655788958072662 0 0 0.7655788958072662 451.7475814819336 337.5)">1</text>
      </g>
      <path fill="none" stroke="black" paint-order="fill stroke markers" d=" M 460.9345282316208 523.5356716811657 Q 274.8988565504551 430.51783584058285 88.8631848692894 337.5" stroke-linejoin="round" stroke-miterlimit="10" stroke-dasharray=""/>
      <g>
        <text fill="none" stroke="white" font-family="arial" font-size="14px" font-style="normal" font-weight="normal" text-decoration="undefined" x="-234.89306640625" y="121.5" text-anchor="start" dominant-baseline="central" transform="matrix(0.7655788958072662 0 0 0.7655788958072662 451.7475814819336 337.5)" stroke-linejoin="round" stroke-miterlimit="10" stroke-width="1.5311577916145325" stroke-dasharray="">1</text>
        <text fill="black" stroke="none" font-family="arial" font-size="14px" font-style="normal" font-weight="normal" text-decoration="undefined" x="-234.89306640625" y="121.5" text-anchor="start" dominant-baseline="central" transform="matrix(0.7655788958072662 0 0 0.7655788958072662 451.7475814819336 337.5)">1</text>
      </g>
      <path fill="none" stroke="black" paint-order="fill stroke markers" d=" M 460.9345282316208 151.4643283188343 Q 274.8988565504551 244.48216415941715 88.8631848692894 337.5" stroke-linejoin="round" stroke-miterlimit="10" stroke-dasharray=""/>
      <g>
        <text fill="none" stroke="white" font-family="arial" font-size="14px" font-style="normal" font-weight="normal" text-decoration="undefined" x="-234.89306640625" y="-121.5" text-anchor="start" dominant-baseline="central" transform="matrix(0.7655788958072662 0 0 0.7655788958072662 451.7475814819336 337.5)" stroke-linejoin="round" stroke-miterlimit="10" stroke-width="1.5311577916145325" stroke-dasharray="">1</text>
        <text fill="black" stroke="none" font-family="arial" font-size="14px" font-style="normal" font-weight="normal" text-decoration="undefined" x="-234.89306640625" y="-121.5" text-anchor="start" dominant-baseline="central" transform="matrix(0.7655788958072662 0 0 0.7655788958072662 451.7475814819336 337.5)">1</text>
      </g>
      <path fill="none" stroke="black" paint-order="fill stroke markers" d=" M 460.9345282316208 275.48810943961143 Q 522.9464187920094 306.4940547198057 584.9583093523979 337.5" stroke-linejoin="round" stroke-miterlimit="10" stroke-dasharray=""/>
      <g>
        <text fill="none" stroke="white" font-family="arial" font-size="14px" font-style="normal" font-weight="normal" text-decoration="undefined" x="89.10693359375" y="-40.5" text-anchor="start" dominant-baseline="central" transform="matrix(0.7655788958072662 0 0 0.7655788958072662 451.7475814819336 337.5)" stroke-linejoin="round" stroke-miterlimit="10" stroke-width="1.5311577916145325" stroke-dasharray="">1</text>
        <text fill="black" stroke="none" font-family="arial" font-size="14px" font-style="normal" font-weight="normal" text-decoration="undefined" x="89.10693359375" y="-40.5" text-anchor="start" dominant-baseline="central" transform="matrix(0.7655788958072662 0 0 0.7655788958072662 451.7475814819336 337.5)">1</text>
      </g>
      <path fill="none" stroke="black" paint-order="fill stroke markers" d=" M 709.7476693689823 275.48810943961143 Q 523.329208239913 337.5 336.91074711084366 399.51189056038857" stroke-linejoin="round" stroke-miterlimit="10" stroke-dasharray=""/>
      <g>
        <text fill="none" stroke="white" font-family="arial" font-size="14px" font-style="normal" font-weight="normal" text-decoration="undefined" x="89.60693359375" y="0" text-anchor="start" dominant-baseline="central" transform="matrix(0.7655788958072662 0 0 0.7655788958072662 451.7475814819336 337.5)" stroke-linejoin="round" stroke-miterlimit="10" stroke-width="1.5311577916145325" stroke-dasharray="">1</text>
        <text fill="black" stroke="none" font-family="arial" font-size="14px" font-style="normal" font-weight="normal" text-decoration="undefined" x="89.60693359375" y="0" text-anchor="start" dominant-baseline="central" transform="matrix(0.7655788958072662 0 0 0.7655788958072662 451.7475814819336 337.5)">1</text>
      </g>
      <path fill="none" stroke="black" paint-order="fill stroke markers" d=" M 709.7476693689823 399.51189056038857 Q 771.7595599293709 368.5059452801943 833.7714504897594 337.5" stroke-linejoin="round" stroke-miterlimit="10" stroke-dasharray=""/>
      <g>
        <text fill="none" stroke="white" font-family="arial" font-size="14px" font-style="normal" font-weight="normal" text-decoration="undefined" x="414.10693359375" y="40.5" text-anchor="start" dominant-baseline="central" transform="matrix(0.7655788958072662 0 0 0.7655788958072662 451.7475814819336 337.5)" stroke-linejoin="round" stroke-miterlimit="10" stroke-width="1.5311577916145325" stroke-dasharray="">1</text>
        <text fill="black" stroke="none" font-family="arial" font-size="14px" font-style="normal" font-weight="normal" text-decoration="undefined" x="414.10693359375" y="40.5" text-anchor="start" dominant-baseline="central" transform="matrix(0.7655788958072662 0 0 0.7655788958072662 451.7475814819336 337.5)">1</text>
      </g>
      <path fill="white" stroke="black" paint-order="stroke fill markers" d=" M 40.90908725603367 337.5 C 40.90908725603367 331.58055377702806 62.378865659771975 326.7818954586983 88.8631848692894 326.7818954586983 C 115.34750407880682 326.7818954586983 136.81728248254512 331.58055377702806 136.81728248254512 337.5 C 136.81728248254512 343.41944622297194 115.34750407880682 348.2181045413017 88.8631848692894 348.2181045413017 C 62.378865659771975 348.2181045413017 40.90908725603367 343.41944622297194 40.90908725603367 337.5 Z" stroke-linejoin="round" stroke-miterlimit="10" stroke-width="1.1249999637700423" stroke-dasharray=""/>
      <g fill="white"/>
      <g stroke="black" stroke-linejoin="round" stroke-miterlimit="10" stroke-width="1.1249999637700423" stroke-dasharray=""/>
      <text fill="black" stroke="none" font-family="arial" font-size="14px" font-style="normal" font-weight="normal" text-decoration="undefined" x="-529.6376953125" y="0" text-anchor="start" dominant-baseline="central" transform="matrix(0.7655788958072662 0 0 0.7655788958072662 451.7475814819336 337.5)">init,green light,still</text>
      <path fill="white" stroke="black" paint-order="stroke fill markers" d=" M 303.2570502100425 399.51189056038857 C 303.2570502100425 393.5924443374166 318.3243218487241 388.79378601908684 336.91074711084366 388.79378601908684 C 355.49717237296323 388.79378601908684 370.5644440116448 393.5924443374166 370.5644440116448 399.51189056038857 C 370.5644440116448 405.4313367833605 355.49717237296323 410.2299951016903 336.91074711084366 410.2299951016903 C 318.3243218487241 410.2299951016903 303.2570502100425 405.4313367833605 303.2570502100425 399.51189056038857 Z" stroke-linejoin="round" stroke-miterlimit="10" stroke-width="1.1249999637700423" stroke-dasharray=""/>
      <g fill="white"/>
      <g stroke="black" stroke-linejoin="round" stroke-miterlimit="10" stroke-width="1.1249999637700423" stroke-dasharray=""/>
      <text fill="black" stroke="none" font-family="arial" font-size="14px" font-style="normal" font-weight="normal" text-decoration="undefined" x="-186.95849609375" y="81" text-anchor="start" dominant-baseline="central" transform="matrix(0.7655788958072662 0 0 0.7655788958072662 451.7475814819336 337.5)">red light,still</text>
      <path fill="white" stroke="black" paint-order="stroke fill markers" d=" M 287.7608062907093 275.48810943961143 C 287.7608062907093 269.5686632166395 309.76598187498394 264.7700048983097 336.91074711084366 264.7700048983097 C 364.0555123467034 264.7700048983097 386.060687930978 269.5686632166395 386.060687930978 275.48810943961143 C 386.060687930978 281.4075556625834 364.0555123467034 286.20621398091316 336.91074711084366 286.20621398091316 C 309.76598187498394 286.20621398091316 287.7608062907093 281.4075556625834 287.7608062907093 275.48810943961143 Z" stroke-linejoin="round" stroke-miterlimit="10" stroke-width="1.1249999637700423" stroke-dasharray=""/>
      <g fill="white"/>
      <g stroke="black" stroke-linejoin="round" stroke-miterlimit="10" stroke-width="1.1249999637700423" stroke-dasharray=""/>
      <text fill="black" stroke="none" font-family="arial" font-size="14px" font-style="normal" font-weight="normal" text-decoration="undefined" x="-207.19970703125" y="-81" text-anchor="start" dominant-baseline="central" transform="matrix(0.7655788958072662 0 0 0.7655788958072662 451.7475814819336 337.5)">green light,moving</text>
      <path fill="white" stroke="black" paint-order="stroke fill markers" d=" M 541.769267493466 337.5 C 541.769267493466 331.58055377702806 561.1056580071461 326.7818954586983 584.9583093523979 326.7818954586983 C 608.8109606976498 326.7818954586983 628.1473512113298 331.58055377702806 628.1473512113298 337.5 C 628.1473512113298 343.41944622297194 608.8109606976498 348.2181045413017 584.9583093523979 348.2181045413017 C 561.1056580071461 348.2181045413017 541.769267493466 343.41944622297194 541.769267493466 337.5 Z" stroke-linejoin="round" stroke-miterlimit="10" stroke-width="1.1249999637700423" stroke-dasharray=""/>
      <g fill="white"/>
      <g stroke="black" stroke-linejoin="round" stroke-miterlimit="10" stroke-width="1.1249999637700423" stroke-dasharray=""/>
      <text fill="black" stroke="none" font-family="arial" font-size="14px" font-style="normal" font-weight="normal" text-decoration="undefined" x="124.58642578125" y="0" text-anchor="start" dominant-baseline="central" transform="matrix(0.7655788958072662 0 0 0.7655788958072662 451.7475814819336 337.5)">red light,moving</text>
      <path fill="white" stroke="black" paint-order="stroke fill markers" d=" M 808.4520218907273 337.5 C 808.4520218907273 331.58055377702806 819.7879149298287 326.7818954586983 833.7714504897594 326.7818954586983 C 847.7549860496902 326.7818954586983 859.0908790887916 331.58055377702806 859.0908790887916 337.5 C 859.0908790887916 343.41944622297194 847.7549860496902 348.2181045413017 833.7714504897594 348.2181045413017 C 819.7879149298287 348.2181045413017 808.4520218907273 343.41944622297194 808.4520218907273 337.5 Z" stroke-linejoin="round" stroke-miterlimit="10" stroke-width="1.1249999637700423" stroke-dasharray=""/>
      <g fill="white"/>
      <g stroke="black" stroke-linejoin="round" stroke-miterlimit="10" stroke-width="1.1249999637700423" stroke-dasharray=""/>
      <text fill="black" stroke="none" font-family="arial" font-size="14px" font-style="normal" font-weight="normal" text-decoration="undefined" x="472.927734375" y="0" text-anchor="start" dominant-baseline="central" transform="matrix(0.7655788958072662 0 0 0.7655788958072662 451.7475814819336 337.5)">accident</text>
      <path fill="lightblue" stroke="black" paint-order="stroke fill markers" d=" M 188.9271128031687 266.30116268992424 L 236.84681917696435 266.30116268992424 L 236.84681917696435 266.30116268992424 A 4.593473374843597 4.593473374843597 0 0 1 241.44029255180794 270.89463606476784 L 241.44029255180794 280.08158281445503 L 241.44029255180794 280.08158281445503 A 4.593473374843597 4.593473374843597 0 0 1 236.84681917696435 284.67505618929863 L 188.9271128031687 284.67505618929863 L 188.9271128031687 284.67505618929863 A 4.593473374843597 4.593473374843597 0 0 1 184.3336394283251 280.08158281445503 L 184.3336394283251 270.89463606476784 L 184.3336394283251 270.89463606476784 A 4.593473374843597 4.593473374843597 0 0 1 188.9271128031687 266.30116268992424 Z" stroke-linejoin="round" stroke-miterlimit="10" stroke-width="1.1249999637700423" stroke-dasharray=""/>
      <g fill="lightblue"/>
      <g stroke="black" stroke-linejoin="round" stroke-miterlimit="10" stroke-width="1.1249999637700423" stroke-dasharray=""/>
      <text fill="black" stroke="none" font-family="arial" font-size="14px" font-style="normal" font-weight="normal" text-decoration="undefined" x="-344.29638671875" y="-81" text-anchor="start" dominant-baseline="central" transform="matrix(0.7655788958072662 0 0 0.7655788958072662 451.7475814819336 337.5)">accelerate</text>
      <path fill="lightblue" stroke="black" paint-order="stroke fill markers" d=" M 204.12243337722612 390.32494381070137 L 221.65149860290694 390.32494381070137 L 221.65149860290694 390.32494381070137 A 4.593473374843597 4.593473374843597 0 0 1 226.24497197775054 394.91841718554497 L 226.24497197775054 404.10536393523216 L 226.24497197775054 404.10536393523216 A 4.593473374843597 4.593473374843597 0 0 1 221.65149860290694 408.69883731007576 L 204.12243337722612 408.69883731007576 L 204.12243337722612 408.69883731007576 A 4.593473374843597 4.593473374843597 0 0 1 199.52896000238252 404.10536393523216 L 199.52896000238252 394.91841718554497 L 199.52896000238252 394.91841718554497 A 4.593473374843597 4.593473374843597 0 0 1 204.12243337722612 390.32494381070137 Z" stroke-linejoin="round" stroke-miterlimit="10" stroke-width="1.1249999637700423" stroke-dasharray=""/>
      <g fill="lightblue"/>
      <g stroke="black" stroke-linejoin="round" stroke-miterlimit="10" stroke-width="1.1249999637700423" stroke-dasharray=""/>
      <text fill="black" stroke="none" font-family="arial" font-size="14px" font-style="normal" font-weight="normal" text-decoration="undefined" x="-324.4482421875" y="81" text-anchor="start" dominant-baseline="central" transform="matrix(0.7655788958072662 0 0 0.7655788958072662 451.7475814819336 337.5)">wait</text>
      <path fill="lightblue" stroke="black" paint-order="stroke fill markers" d=" M 436.97467504472297 390.32494381070137 L 484.8943814185186 390.32494381070137 L 484.8943814185186 390.32494381070137 A 4.593473374843597 4.593473374843597 0 0 1 489.4878547933622 394.91841718554497 L 489.4878547933622 404.10536393523216 L 489.4878547933622 404.10536393523216 A 4.593473374843597 4.593473374843597 0 0 1 484.8943814185186 408.69883731007576 L 436.97467504472297 408.69883731007576 L 436.97467504472297 408.69883731007576 A 4.593473374843597 4.593473374843597 0 0 1 432.3812016698794 404.10536393523216 L 432.3812016698794 394.91841718554497 L 432.3812016698794 394.91841718554497 A 4.593473374843597 4.593473374843597 0 0 1 436.97467504472297 390.32494381070137 Z" stroke-linejoin="round" stroke-miterlimit="10" stroke-width="1.1249999637700423" stroke-dasharray=""/>
      <g fill="lightblue"/>
      <g stroke="black" stroke-linejoin="round" stroke-miterlimit="10" stroke-width="1.1249999637700423" stroke-dasharray=""/>
      <text fill="black" stroke="none" font-family="arial" font-size="14px" font-style="normal" font-weight="normal" text-decoration="undefined" x="-20.29638671875" y="81" text-anchor="start" dominant-baseline="central" transform="matrix(0.7655788958072662 0 0 0.7655788958072662 451.7475814819336 337.5)">accelerate</text>
      <path fill="lightblue" stroke="black" paint-order="stroke fill markers" d=" M 452.1699956187804 514.3487249314785 L 469.6990608444612 514.3487249314785 L 469.6990608444612 514.3487249314785 A 4.593473374843597 4.593473374843597 0 0 1 474.2925342193048 518.9421983063221 L 474.2925342193048 528.1291450560093 L 474.2925342193048 528.1291450560093 A 4.593473374843597 4.593473374843597 0 0 1 469.6990608444612 532.7226184308529 L 452.1699956187804 532.7226184308529 L 452.1699956187804 532.7226184308529 A 4.593473374843597 4.593473374843597 0 0 1 447.5765222439368 528.1291450560093 L 447.5765222439368 518.9421983063221 L 447.5765222439368 518.9421983063221 A 4.593473374843597 4.593473374843597 0 0 1 452.1699956187804 514.3487249314785 Z" stroke-linejoin="round" stroke-miterlimit="10" stroke-width="1.1249999637700423" stroke-dasharray=""/>
      <g fill="lightblue"/>
      <g stroke="black" stroke-linejoin="round" stroke-miterlimit="10" stroke-width="1.1249999637700423" stroke-dasharray=""/>
      <text fill="black" stroke="none" font-family="arial" font-size="14px" font-style="normal" font-weight="normal" text-decoration="undefined" x="-0.4482421875" y="243" text-anchor="start" dominant-baseline="central" transform="matrix(0.7655788958072662 0 0 0.7655788958072662 451.7475814819336 337.5)">wait</text>
      <path fill="lightblue" stroke="black" paint-order="stroke fill markers" d=" M 448.2946262765763 142.2773815691471 L 473.57443018666527 142.2773815691471 L 473.57443018666527 142.2773815691471 A 4.593473374843597 4.593473374843597 0 0 1 478.16790356150887 146.8708549439907 L 478.16790356150887 156.0578016936779 L 478.16790356150887 156.0578016936779 A 4.593473374843597 4.593473374843597 0 0 1 473.57443018666527 160.6512750685215 L 448.2946262765763 160.6512750685215 L 448.2946262765763 160.6512750685215 A 4.593473374843597 4.593473374843597 0 0 1 443.7011529017327 156.0578016936779 L 443.7011529017327 146.8708549439907 L 443.7011529017327 146.8708549439907 A 4.593473374843597 4.593473374843597 0 0 1 448.2946262765763 142.2773815691471 Z" stroke-linejoin="round" stroke-miterlimit="10" stroke-width="1.1249999637700423" stroke-dasharray=""/>
      <g fill="lightblue"/>
      <g stroke="black" stroke-linejoin="round" stroke-miterlimit="10" stroke-width="1.1249999637700423" stroke-dasharray=""/>
      <text fill="black" stroke="none" font-family="arial" font-size="14px" font-style="normal" font-weight="normal" text-decoration="undefined" x="-5.51025390625" y="-243" text-anchor="start" dominant-baseline="central" transform="matrix(0.7655788958072662 0 0 0.7655788958072662 451.7475814819336 337.5)">brake</text>
      <path fill="lightblue" stroke="black" paint-order="stroke fill markers" d=" M 452.1699956187804 266.30116268992424 L 469.6990608444612 266.30116268992424 L 469.6990608444612 266.30116268992424 A 4.593473374843597 4.593473374843597 0 0 1 474.2925342193048 270.89463606476784 L 474.2925342193048 280.08158281445503 L 474.2925342193048 280.08158281445503 A 4.593473374843597 4.593473374843597 0 0 1 469.6990608444612 284.67505618929863 L 452.1699956187804 284.67505618929863 L 452.1699956187804 284.67505618929863 A 4.593473374843597 4.593473374843597 0 0 1 447.5765222439368 280.08158281445503 L 447.5765222439368 270.89463606476784 L 447.5765222439368 270.89463606476784 A 4.593473374843597 4.593473374843597 0 0 1 452.1699956187804 266.30116268992424 Z" stroke-linejoin="round" stroke-miterlimit="10" stroke-width="1.1249999637700423" stroke-dasharray=""/>
      <g fill="lightblue"/>
      <g stroke="black" stroke-linejoin="round" stroke-miterlimit="10" stroke-width="1.1249999637700423" stroke-dasharray=""/>
      <text fill="black" stroke="none" font-family="arial" font-size="14px" font-style="normal" font-weight="normal" text-decoration="undefined" x="-0.4482421875" y="-81" text-anchor="start" dominant-baseline="central" transform="matrix(0.7655788958072662 0 0 0.7655788958072662 451.7475814819336 337.5)">wait</text>
      <path fill="lightblue" stroke="black" paint-order="stroke fill markers" d=" M 697.1077674139378 266.30116268992424 L 722.3875713240268 266.30116268992424 L 722.3875713240268 266.30116268992424 A 4.593473374843597 4.593473374843597 0 0 1 726.9810446988704 270.89463606476784 L 726.9810446988704 280.08158281445503 L 726.9810446988704 280.08158281445503 A 4.593473374843597 4.593473374843597 0 0 1 722.3875713240268 284.67505618929863 L 697.1077674139378 284.67505618929863 L 697.1077674139378 284.67505618929863 A 4.593473374843597 4.593473374843597 0 0 1 692.5142940390942 280.08158281445503 L 692.5142940390942 270.89463606476784 L 692.5142940390942 270.89463606476784 A 4.593473374843597 4.593473374843597 0 0 1 697.1077674139378 266.30116268992424 Z" stroke-linejoin="round" stroke-miterlimit="10" stroke-width="1.1249999637700423" stroke-dasharray=""/>
      <g fill="lightblue"/>
      <g stroke="black" stroke-linejoin="round" stroke-miterlimit="10" stroke-width="1.1249999637700423" stroke-dasharray=""/>
      <text fill="black" stroke="none" font-family="arial" font-size="14px" font-style="normal" font-weight="normal" text-decoration="undefined" x="319.48974609375" y="-81" text-anchor="start" dominant-baseline="central" transform="matrix(0.7655788958072662 0 0 0.7655788958072662 451.7475814819336 337.5)">brake</text>
      <path fill="lightblue" stroke="black" paint-order="stroke fill markers" d=" M 700.9831367561419 390.32494381070137 L 718.5122019818227 390.32494381070137 L 718.5122019818227 390.32494381070137 A 4.593473374843597 4.593473374843597 0 0 1 723.1056753566663 394.91841718554497 L 723.1056753566663 404.10536393523216 L 723.1056753566663 404.10536393523216 A 4.593473374843597 4.593473374843597 0 0 1 718.5122019818227 408.69883731007576 L 700.9831367561419 408.69883731007576 L 700.9831367561419 408.69883731007576 A 4.593473374843597 4.593473374843597 0 0 1 696.3896633812983 404.10536393523216 L 696.3896633812983 394.91841718554497 L 696.3896633812983 394.91841718554497 A 4.593473374843597 4.593473374843597 0 0 1 700.9831367561419 390.32494381070137 Z" stroke-linejoin="round" stroke-miterlimit="10" stroke-width="1.1249999637700423" stroke-dasharray=""/>
      <g fill="lightblue"/>
      <g stroke="black" stroke-linejoin="round" stroke-miterlimit="10" stroke-width="1.1249999637700423" stroke-dasharray=""/>
      <text fill="black" stroke="none" font-family="arial" font-size="14px" font-style="normal" font-weight="normal" text-decoration="undefined" x="324.5517578125" y="81" text-anchor="start" dominant-baseline="central" transform="matrix(0.7655788958072662 0 0 0.7655788958072662 451.7475814819336 337.5)">wait</text>
      <path fill="black" stroke="none" paint-order="stroke fill markers" d=" M 193.75048413744662 285.0563503659214 L 183.27373904408125 294.91681633614763 L 182.65745992094207 290.60286247417366 L 179.5760643052464 287.52146685847794 Z"/>
      <path fill="black" stroke="none" paint-order="stroke fill markers" d=" M 198.8373970349785 392.48710608284455 L 184.66297720277828 390.021989590288 L 187.74437281847395 386.9405939745923 L 188.36065194161313 382.6266401126183 Z"/>
      <path fill="black" stroke="none" paint-order="stroke fill markers" d=" M 431.62422058393713 399.51189056038857 L 417.84380045940634 403.6460165977478 L 419.2218424718594 399.51189056038857 L 417.84380045940634 395.3777645230293 Z"/>
      <path fill="black" stroke="none" paint-order="stroke fill markers" d=" M 451.2451703315601 513.846313781105 L 438.5776732586082 507.0253538187463 L 442.4753646656703 505.07650811521523 L 444.4242103692014 501.17881670815314 Z"/>
      <path fill="black" stroke="none" paint-order="stroke fill markers" d=" M 451.2451703315601 161.15368621889502 L 444.4242103692014 173.8211832918469 L 442.4753646656703 169.92349188478477 L 438.5776732586082 167.97464618125372 Z"/>
      <path fill="black" stroke="none" paint-order="stroke fill markers" d=" M 446.88495927653275 275.48810943961143 L 433.10453915200196 279.6222354769707 L 434.48258116445504 275.48810943961143 L 433.10453915200196 271.3539834022522 Z"/>
      <path fill="black" stroke="none" paint-order="stroke fill markers" d=" M 691.7117071790854 284.4507654971676 L 681.2107665929159 294.28546039365943 L 680.6050886932089 289.9700053582473 L 677.531273352196 286.8810480697418 Z"/>
      <path fill="black" stroke="none" paint-order="stroke fill markers" d=" M 695.6113746796036 392.48710608284455 L 681.4309408527142 390.05682351027036 L 684.5047561937272 386.96786622176484 L 685.1104340934342 382.6524111863527 Z"/>
      <path fill="black" stroke="none" paint-order="stroke fill markers" d=" M 857.6091258592285 333.90305409410803 L 854.9840781285554 319.75737979724136 L 858.9456296230342 321.57289835606974 L 863.2041819539143 320.6483823064452 Z"/>
      <path fill="black" stroke="none" paint-order="stroke fill markers" d=" M 287.73725576803554 275.48810943961143 L 273.95683564350475 279.6222354769707 L 275.3348776559578 275.48810943961143 L 273.95683564350475 271.3539834022522 Z"/>
      <path fill="black" stroke="none" paint-order="stroke fill markers" d=" M 303.2402284081327 399.51189056038857 L 289.4598082836019 403.6460165977478 L 290.83785029605497 399.51189056038857 L 289.4598082836019 395.3777645230293 Z"/>
      <path fill="black" stroke="none" paint-order="stroke fill markers" d=" M 565.821827499778 347.06824092630995 L 555.3450824064126 356.9287068965362 L 554.7288032832735 352.6147530345622 L 551.6474076675778 349.5333574188665 Z"/>
      <path fill="black" stroke="none" paint-order="stroke fill markers" d=" M 108.48413461691234 347.3104748738115 L 122.65855444911256 349.775591366368 L 119.57715883341689 352.85698698206375 L 118.96087971027771 357.1709408440377 Z"/>
      <path fill="black" stroke="none" paint-order="stroke fill markers" d=" M 108.48413461691234 327.6895251261885 L 118.96087971027771 317.8290591559623 L 119.57715883341689 322.14301301793625 L 122.65855444911256 325.224408633632 Z"/>
      <path fill="black" stroke="none" paint-order="stroke fill markers" d=" M 565.821827499778 327.93175907369005 L 551.6474076675778 325.4666425811335 L 554.7288032832735 322.3852469654378 L 555.3450824064126 318.0712931034638 Z"/>
      <path fill="black" stroke="none" paint-order="stroke fill markers" d=" M 360.2130547519773 391.76040424034 L 371.9840829845511 383.4879275102853 L 371.98139798723525 387.84567815386816 L 374.5939003755323 391.3334896671239 Z"/>
      <path fill="black" stroke="none" paint-order="stroke fill markers" d=" M 817.2995420596562 345.7359542150516 L 806.8227969662909 355.59642018527785 L 806.2065178431517 351.2824663233039 L 803.125122227456 348.20107070760815 Z"/>
    </g>
    <rect fill="#FFFFFF" stroke="none" x="0" y="0" width="800" height="600" transform="matrix(1.125 0 0 1.125 0 0)"/>
    <g>
      <path fill="none" stroke="black" paint-order="fill stroke markers" d=" M 88.8631848692894 337.5 Q 150.87507542967796 306.4940547198057 212.88696599006653 275.48810943961143" stroke-miterlimit="10" stroke-dasharray=""/>
      <path fill="none" stroke="black" paint-order="fill stroke markers" d=" M 88.8631848692894 337.5 Q 150.87507542967796 368.5059452801943 212.88696599006653 399.51189056038857" stroke-miterlimit="10" stroke-dasharray=""/>
      <path fill="none" stroke="black" paint-order="fill stroke markers" d=" M 336.91074711084366 399.51189056038857 Q 398.9226376712322 399.51189056038857 460.9345282316208 399.51189056038857" stroke-miterlimit="10" stroke-dasharray=""/>
      <path fill="none" stroke="black" paint-order="fill stroke markers" d=" M 336.91074711084366 399.51189056038857 Q 398.9226376712322 461.52378112077713 460.9345282316208 523.5356716811657" stroke-miterlimit="10" stroke-dasharray=""/>
      <path fill="none" stroke="black" paint-order="fill stroke markers" d=" M 336.91074711084366 275.48810943961143 Q 398.9226376712322 213.47621887922287 460.9345282316208 151.4643283188343" stroke-miterlimit="10" stroke-dasharray=""/>
      <path fill="none" stroke="black" paint-order="fill stroke markers" d=" M 336.91074711084366 275.48810943961143 Q 398.9226376712322 275.48810943961143 460.9345282316208 275.48810943961143" stroke-miterlimit="10" stroke-dasharray=""/>
      <path fill="none" stroke="black" paint-order="fill stroke markers" d=" M 584.9583093523979 337.5 Q 647.3529893606901 306.4940547198057 709.7476693689823 275.48810943961143" stroke-miterlimit="10" stroke-dasharray=""/>
      <path fill="none" stroke="black" paint-order="fill stroke markers" d=" M 584.9583093523979 337.5 Q 647.3529893606901 368.5059452801943 709.7476693689823 399.51189056038857" stroke-miterlimit="10" stroke-dasharray=""/>
      <path fill="none" stroke="black" paint-order="fill stroke markers" d=" M 858.9532067561969 327.62982164970794 A 15.311577916145325 15.311577916145325 0 1 1 858.9531991004085 327.6145100743437" stroke-miterlimit="10" stroke-dasharray=""/>
      <text fill="none" stroke="white" font-family="arial" font-size="14px" font-style="normal" font-weight="normal" text-decoration="undefined" x="522.1415070894582" y="-27.034573495708145" text-anchor="start" dominant-baseline="central" transform="matrix(0.7655788958072662 0 0 0.7655788958072662 451.7475814819336 337.5)" stroke-linejoin="round" stroke-miterlimit="10" stroke-width="1.5311577916145325" stroke-dasharray="">1</text>
      <text fill="black" stroke="none" font-family="arial" font-size="14px" font-style="normal" font-weight="normal" text-decoration="undefined" x="522.1415070894582" y="-27.034573495708145" text-anchor="start" dominant-baseline="central" transform="matrix(0.7655788958072662 0 0 0.7655788958072662 451.7475814819336 337.5)">1</text>
      <path fill="none" stroke="black" paint-order="fill stroke markers" d=" M 212.88696599006653 275.48810943961143 Q 274.8988565504551 275.48810943961143 336.91074711084366 275.48810943961143" stroke-linejoin="round" stroke-miterlimit="10" stroke-dasharray=""/>
      <g>
        <text fill="none" stroke="white" font-family="arial" font-size="14px" font-style="normal" font-weight="normal" text-decoration="undefined" x="-234.89306640625" y="-81" text-anchor="start" dominant-baseline="central" transform="matrix(0.7655788958072662 0 0 0.7655788958072662 451.7475814819336 337.5)" stroke-linejoin="round" stroke-miterlimit="10" stroke-width="1.5311577916145325" stroke-dasharray="">1</text>
        <text fill="black" stroke="none" font-family="arial" font-size="14px" font-style="normal" font-weight="normal" text-decoration="undefined" x="-234.89306640625" y="-81" text-anchor="start" dominant-baseline="central" transform="matrix(0.7655788958072662 0 0 0.7655788958072662 451.7475814819336 337.5)">1</text>
      </g>
      <path fill="none" stroke="black" paint-order="fill stroke markers" d=" M 212.88696599006653 399.51189056038857 Q 274.8988565504551 399.51189056038857 336.91074711084366 399.51189056038857" stroke-linejoin="round" stroke-miterlimit="10" stroke-dasharray=""/>
      <g>
        <text fill="none" stroke="white" font-family="arial" font-size="14px" font-style="normal" font-weight="normal" text-decoration="undefined" x="-234.89306640625" y="81" text-anchor="start" dominant-baseline="central" transform="matrix(0.7655788958072662 0 0 0.7655788958072662 451.7475814819336 337.5)" stroke-linejoin="round" stroke-miterlimit="10" stroke-width="1.5311577916145325" stroke-dasharray="">1</text>
        <text fill="black" stroke="none" font-family="arial" font-size="14px" font-style="normal" font-weight="normal" text-decoration="undefined" x="-234.89306640625" y="81" text-anchor="start" dominant-baseline="central" transform="matrix(0.7655788958072662 0 0 0.7655788958072662 451.7475814819336 337.5)">1</text>
      </g>
      <path fill="none" stroke="black" paint-order="fill stroke markers" d=" M 460.9345282316208 399.51189056038857 Q 522.9464187920094 368.5059452801943 584.9583093523979 337.5" stroke-linejoin="round" stroke-miterlimit="10" stroke-dasharray=""/>
      <g>
        <text fill="none" stroke="white" font-family="arial" font-size="14px" font-style="normal" font-weight="normal" text-decoration="undefined" x="89.10693359375" y="40.5" text-anchor="start" dominant-baseline="central" transform="matrix(0.7655788958072662 0 0 0.7655788958072662 451.7475814819336 337.5)" stroke-linejoin="round" stroke-miterlimit="10" stroke-width="1.5311577916145325" stroke-dasharray="">1</text>
        <text fill="black" stroke="none" font-family="arial" font-size="14px" font-style="normal" font-weight="normal" text-decoration="undefined" x="89.10693359375" y="40.5" text-anchor="start" dominant-baseline="central" transform="matrix(0.7655788958072662 0 0 0.7655788958072662 451.7475814819336 337.5)">1</text>
      </g>
      <path fill="none" stroke="black" paint-order="fill stroke markers" d=" M 460.9345282316208 523.5356716811657 Q 274.8988565504551 430.51783584058285 88.8631848692894 337.5" stroke-linejoin="round" stroke-miterlimit="10" stroke-dasharray=""/>
      <g>
        <text fill="none" stroke="white" font-family="arial" font-size="14px" font-style="normal" font-weight="normal" text-decoration="undefined" x="-234.89306640625" y="121.5" text-anchor="start" dominant-baseline="central" transform="matrix(0.7655788958072662 0 0 0.7655788958072662 451.7475814819336 337.5)" stroke-linejoin="round" stroke-miterlimit="10" stroke-width="1.5311577916145325" stroke-dasharray="">1</text>
        <text fill="black" stroke="none" font-family="arial" font-size="14px" font-style="normal" font-weight="normal" text-decoration="undefined" x="-234.89306640625" y="121.5" text-anchor="start" dominant-baseline="central" transform="matrix(0.7655788958072662 0 0 0.7655788958072662 451.7475814819336 337.5)">1</text>
      </g>
      <path fill="none" stroke="black" paint-order="fill stroke markers" d=" M 460.9345282316208 151.4643283188343 Q 274.8988565504551 244.48216415941715 88.8631848692894 337.5" stroke-linejoin="round" stroke-miterlimit="10" stroke-dasharray=""/>
      <g>
        <text fill="none" stroke="white" font-family="arial" font-size="14px" font-style="normal" font-weight="normal" text-decoration="undefined" x="-234.89306640625" y="-121.5" text-anchor="start" dominant-baseline="central" transform="matrix(0.7655788958072662 0 0 0.7655788958072662 451.7475814819336 337.5)" stroke-linejoin="round" stroke-miterlimit="10" stroke-width="1.5311577916145325" stroke-dasharray="">1</text>
        <text fill="black" stroke="none" font-family="arial" font-size="14px" font-style="normal" font-weight="normal" text-decoration="undefined" x="-234.89306640625" y="-121.5" text-anchor="start" dominant-baseline="central" transform="matrix(0.7655788958072662 0 0 0.7655788958072662 451.7475814819336 337.5)">1</text>
      </g>
      <path fill="none" stroke="black" paint-order="fill stroke markers" d=" M 460.9345282316208 275.48810943961143 Q 522.9464187920094 306.4940547198057 584.9583093523979 337.5" stroke-linejoin="round" stroke-miterlimit="10" stroke-dasharray=""/>
      <g>
        <text fill="none" stroke="white" font-family="arial" font-size="14px" font-style="normal" font-weight="normal" text-decoration="undefined" x="89.10693359375" y="-40.5" text-anchor="start" dominant-baseline="central" transform="matrix(0.7655788958072662 0 0 0.7655788958072662 451.7475814819336 337.5)" stroke-linejoin="round" stroke-miterlimit="10" stroke-width="1.5311577916145325" stroke-dasharray="">1</text>
        <text fill="black" stroke="none" font-family="arial" font-size="14px" font-style="normal" font-weight="normal" text-decoration="undefined" x="89.10693359375" y="-40.5" text-anchor="start" dominant-baseline="central" transform="matrix(0.7655788958072662 0 0 0.7655788958072662 451.7475814819336 337.5)">1</text>
      </g>
      <path fill="none" stroke="black" paint-order="fill stroke markers" d=" M 709.7476693689823 275.48810943961143 Q 523.329208239913 337.5 336.91074711084366 399.51189056038857" stroke-linejoin="round" stroke-miterlimit="10" stroke-dasharray=""/>
      <g>
        <text fill="none" stroke="white" font-family="arial" font-size="14px" font-style="normal" font-weight="normal" text-decoration="undefined" x="89.60693359375" y="0" text-anchor="start" dominant-baseline="central" transform="matrix(0.7655788958072662 0 0 0.7655788958072662 451.7475814819336 337.5)" stroke-linejoin="round" stroke-miterlimit="10" stroke-width="1.5311577916145325" stroke-dasharray="">1</text>
        <text fill="black" stroke="none" font-family="arial" font-size="14px" font-style="normal" font-weight="normal" text-decoration="undefined" x="89.60693359375" y="0" text-anchor="start" dominant-baseline="central" transform="matrix(0.7655788958072662 0 0 0.7655788958072662 451.7475814819336 337.5)">1</text>
      </g>
      <path fill="none" stroke="black" paint-order="fill stroke markers" d=" M 709.7476693689823 399.51189056038857 Q 771.7595599293709 368.5059452801943 833.7714504897594 337.5" stroke-linejoin="round" stroke-miterlimit="10" stroke-dasharray=""/>
      <g>
        <text fill="none" stroke="white" font-family="arial" font-size="14px" font-style="normal" font-weight="normal" text-decoration="undefined" x="414.10693359375" y="40.5" text-anchor="start" dominant-baseline="central" transform="matrix(0.7655788958072662 0 0 0.7655788958072662 451.7475814819336 337.5)" stroke-linejoin="round" stroke-miterlimit="10" stroke-width="1.5311577916145325" stroke-dasharray="">1</text>
        <text fill="black" stroke="none" font-family="arial" font-size="14px" font-style="normal" font-weight="normal" text-decoration="undefined" x="414.10693359375" y="40.5" text-anchor="start" dominant-baseline="central" transform="matrix(0.7655788958072662 0 0 0.7655788958072662 451.7475814819336 337.5)">1</text>
      </g>
      <path fill="white" stroke="black" paint-order="stroke fill markers" d=" M 40.90908725603367 337.5 C 40.90908725603367 331.58055377702806 62.378865659771975 326.7818954586983 88.8631848692894 326.7818954586983 C 115.34750407880682 326.7818954586983 136.81728248254512 331.58055377702806 136.81728248254512 337.5 C 136.81728248254512 343.41944622297194 115.34750407880682 348.2181045413017 88.8631848692894 348.2181045413017 C 62.378865659771975 348.2181045413017 40.90908725603367 343.41944622297194 40.90908725603367 337.5 Z" stroke-linejoin="round" stroke-miterlimit="10" stroke-width="1.1249999637700423" stroke-dasharray=""/>
      <g fill="white"/>
      <g stroke="black" stroke-linejoin="round" stroke-miterlimit="10" stroke-width="1.1249999637700423" stroke-dasharray=""/>
      <text fill="black" stroke="none" font-family="arial" font-size="14px" font-style="normal" font-weight="normal" text-decoration="undefined" x="-529.6376953125" y="0" text-anchor="start" dominant-baseline="central" transform="matrix(0.7655788958072662 0 0 0.7655788958072662 451.7475814819336 337.5)">init,green light,still</text>
      <path fill="white" stroke="black" paint-order="stroke fill markers" d=" M 303.2570502100425 399.51189056038857 C 303.2570502100425 393.5924443374166 318.3243218487241 388.79378601908684 336.91074711084366 388.79378601908684 C 355.49717237296323 388.79378601908684 370.5644440116448 393.5924443374166 370.5644440116448 399.51189056038857 C 370.5644440116448 405.4313367833605 355.49717237296323 410.2299951016903 336.91074711084366 410.2299951016903 C 318.3243218487241 410.2299951016903 303.2570502100425 405.4313367833605 303.2570502100425 399.51189056038857 Z" stroke-linejoin="round" stroke-miterlimit="10" stroke-width="1.1249999637700423" stroke-dasharray=""/>
      <g fill="white"/>
      <g stroke="black" stroke-linejoin="round" stroke-miterlimit="10" stroke-width="1.1249999637700423" stroke-dasharray=""/>
      <text fill="black" stroke="none" font-family="arial" font-size="14px" font-style="normal" font-weight="normal" text-decoration="undefined" x="-186.95849609375" y="81" text-anchor="start" dominant-baseline="central" transform="matrix(0.7655788958072662 0 0 0.7655788958072662 451.7475814819336 337.5)">red light,still</text>
      <path fill="white" stroke="black" paint-order="stroke fill markers" d=" M 287.7608062907093 275.48810943961143 C 287.7608062907093 269.5686632166395 309.76598187498394 264.7700048983097 336.91074711084366 264.7700048983097 C 364.0555123467034 264.7700048983097 386.060687930978 269.5686632166395 386.060687930978 275.48810943961143 C 386.060687930978 281.4075556625834 364.0555123467034 286.20621398091316 336.91074711084366 286.20621398091316 C 309.76598187498394 286.20621398091316 287.7608062907093 281.4075556625834 287.7608062907093 275.48810943961143 Z" stroke-linejoin="round" stroke-miterlimit="10" stroke-width="1.1249999637700423" stroke-dasharray=""/>
      <g fill="white"/>
      <g stroke="black" stroke-linejoin="round" stroke-miterlimit="10" stroke-width="1.1249999637700423" stroke-dasharray=""/>
      <text fill="black" stroke="none" font-family="arial" font-size="14px" font-style="normal" font-weight="normal" text-decoration="undefined" x="-207.19970703125" y="-81" text-anchor="start" dominant-baseline="central" transform="matrix(0.7655788958072662 0 0 0.7655788958072662 451.7475814819336 337.5)">green light,moving</text>
      <path fill="white" stroke="black" paint-order="stroke fill markers" d=" M 541.769267493466 337.5 C 541.769267493466 331.58055377702806 561.1056580071461 326.7818954586983 584.9583093523979 326.7818954586983 C 608.8109606976498 326.7818954586983 628.1473512113298 331.58055377702806 628.1473512113298 337.5 C 628.1473512113298 343.41944622297194 608.8109606976498 348.2181045413017 584.9583093523979 348.2181045413017 C 561.1056580071461 348.2181045413017 541.769267493466 343.41944622297194 541.769267493466 337.5 Z" stroke-linejoin="round" stroke-miterlimit="10" stroke-width="1.1249999637700423" stroke-dasharray=""/>
      <g fill="white"/>
      <g stroke="black" stroke-linejoin="round" stroke-miterlimit="10" stroke-width="1.1249999637700423" stroke-dasharray=""/>
      <text fill="black" stroke="none" font-family="arial" font-size="14px" font-style="normal" font-weight="normal" text-decoration="undefined" x="124.58642578125" y="0" text-anchor="start" dominant-baseline="central" transform="matrix(0.7655788958072662 0 0 0.7655788958072662 451.7475814819336 337.5)">red light,moving</text>
      <path fill="white" stroke="black" paint-order="stroke fill markers" d=" M 808.4520218907273 337.5 C 808.4520218907273 331.58055377702806 819.7879149298287 326.7818954586983 833.7714504897594 326.7818954586983 C 847.7549860496902 326.7818954586983 859.0908790887916 331.58055377702806 859.0908790887916 337.5 C 859.0908790887916 343.41944622297194 847.7549860496902 348.2181045413017 833.7714504897594 348.2181045413017 C 819.7879149298287 348.2181045413017 808.4520218907273 343.41944622297194 808.4520218907273 337.5 Z" stroke-linejoin="round" stroke-miterlimit="10" stroke-width="1.1249999637700423" stroke-dasharray=""/>
      <g fill="white"/>
      <g stroke="black" stroke-linejoin="round" stroke-miterlimit="10" stroke-width="1.1249999637700423" stroke-dasharray=""/>
      <text fill="black" stroke="none" font-family="arial" font-size="14px" font-style="normal" font-weight="normal" text-decoration="undefined" x="472.927734375" y="0" text-anchor="start" dominant-baseline="central" transform="matrix(0.7655788958072662 0 0 0.7655788958072662 451.7475814819336 337.5)">accident</text>
      <path fill="lightblue" stroke="black" paint-order="stroke fill markers" d=" M 188.9271128031687 266.30116268992424 L 236.84681917696435 266.30116268992424 L 236.84681917696435 266.30116268992424 A 4.593473374843597 4.593473374843597 0 0 1 241.44029255180794 270.89463606476784 L 241.44029255180794 280.08158281445503 L 241.44029255180794 280.08158281445503 A 4.593473374843597 4.593473374843597 0 0 1 236.84681917696435 284.67505618929863 L 188.9271128031687 284.67505618929863 L 188.9271128031687 284.67505618929863 A 4.593473374843597 4.593473374843597 0 0 1 184.3336394283251 280.08158281445503 L 184.3336394283251 270.89463606476784 L 184.3336394283251 270.89463606476784 A 4.593473374843597 4.593473374843597 0 0 1 188.9271128031687 266.30116268992424 Z" stroke-linejoin="round" stroke-miterlimit="10" stroke-width="1.1249999637700423" stroke-dasharray=""/>
      <g fill="lightblue"/>
      <g stroke="black" stroke-linejoin="round" stroke-miterlimit="10" stroke-width="1.1249999637700423" stroke-dasharray=""/>
      <text fill="black" stroke="none" font-family="arial" font-size="14px" font-style="normal" font-weight="normal" text-decoration="undefined" x="-344.29638671875" y="-81" text-anchor="start" dominant-baseline="central" transform="matrix(0.7655788958072662 0 0 0.7655788958072662 451.7475814819336 337.5)">accelerate</text>
      <path fill="lightblue" stroke="black" paint-order="stroke fill markers" d=" M 204.12243337722612 390.32494381070137 L 221.65149860290694 390.32494381070137 L 221.65149860290694 390.32494381070137 A 4.593473374843597 4.593473374843597 0 0 1 226.24497197775054 394.91841718554497 L 226.24497197775054 404.10536393523216 L 226.24497197775054 404.10536393523216 A 4.593473374843597 4.593473374843597 0 0 1 221.65149860290694 408.69883731007576 L 204.12243337722612 408.69883731007576 L 204.12243337722612 408.69883731007576 A 4.593473374843597 4.593473374843597 0 0 1 199.52896000238252 404.10536393523216 L 199.52896000238252 394.91841718554497 L 199.52896000238252 394.91841718554497 A 4.593473374843597 4.593473374843597 0 0 1 204.12243337722612 390.32494381070137 Z" stroke-linejoin="round" stroke-miterlimit="10" stroke-width="1.1249999637700423" stroke-dasharray=""/>
      <g fill="lightblue"/>
      <g stroke="black" stroke-linejoin="round" stroke-miterlimit="10" stroke-width="1.1249999637700423" stroke-dasharray=""/>
      <text fill="black" stroke="none" font-family="arial" font-size="14px" font-style="normal" font-weight="normal" text-decoration="undefined" x="-324.4482421875" y="81" text-anchor="start" dominant-baseline="central" transform="matrix(0.7655788958072662 0 0 0.7655788958072662 451.7475814819336 337.5)">wait</text>
      <path fill="lightblue" stroke="black" paint-order="stroke fill markers" d=" M 436.97467504472297 390.32494381070137 L 484.8943814185186 390.32494381070137 L 484.8943814185186 390.32494381070137 A 4.593473374843597 4.593473374843597 0 0 1 489.4878547933622 394.91841718554497 L 489.4878547933622 404.10536393523216 L 489.4878547933622 404.10536393523216 A 4.593473374843597 4.593473374843597 0 0 1 484.8943814185186 408.69883731007576 L 436.97467504472297 408.69883731007576 L 436.97467504472297 408.69883731007576 A 4.593473374843597 4.593473374843597 0 0 1 432.3812016698794 404.10536393523216 L 432.3812016698794 394.91841718554497 L 432.3812016698794 394.91841718554497 A 4.593473374843597 4.593473374843597 0 0 1 436.97467504472297 390.32494381070137 Z" stroke-linejoin="round" stroke-miterlimit="10" stroke-width="1.1249999637700423" stroke-dasharray=""/>
      <g fill="lightblue"/>
      <g stroke="black" stroke-linejoin="round" stroke-miterlimit="10" stroke-width="1.1249999637700423" stroke-dasharray=""/>
      <text fill="black" stroke="none" font-family="arial" font-size="14px" font-style="normal" font-weight="normal" text-decoration="undefined" x="-20.29638671875" y="81" text-anchor="start" dominant-baseline="central" transform="matrix(0.7655788958072662 0 0 0.7655788958072662 451.7475814819336 337.5)">accelerate</text>
      <path fill="lightblue" stroke="black" paint-order="stroke fill markers" d=" M 452.1699956187804 514.3487249314785 L 469.6990608444612 514.3487249314785 L 469.6990608444612 514.3487249314785 A 4.593473374843597 4.593473374843597 0 0 1 474.2925342193048 518.9421983063221 L 474.2925342193048 528.1291450560093 L 474.2925342193048 528.1291450560093 A 4.593473374843597 4.593473374843597 0 0 1 469.6990608444612 532.7226184308529 L 452.1699956187804 532.7226184308529 L 452.1699956187804 532.7226184308529 A 4.593473374843597 4.593473374843597 0 0 1 447.5765222439368 528.1291450560093 L 447.5765222439368 518.9421983063221 L 447.5765222439368 518.9421983063221 A 4.593473374843597 4.593473374843597 0 0 1 452.1699956187804 514.3487249314785 Z" stroke-linejoin="round" stroke-miterlimit="10" stroke-width="1.1249999637700423" stroke-dasharray=""/>
      <g fill="lightblue"/>
      <g stroke="black" stroke-linejoin="round" stroke-miterlimit="10" stroke-width="1.1249999637700423" stroke-dasharray=""/>
      <text fill="black" stroke="none" font-family="arial" font-size="14px" font-style="normal" font-weight="normal" text-decoration="undefined" x="-0.4482421875" y="243" text-anchor="start" dominant-baseline="central" transform="matrix(0.7655788958072662 0 0 0.7655788958072662 451.7475814819336 337.5)">wait</text>
      <path fill="lightblue" stroke="black" paint-order="stroke fill markers" d=" M 448.2946262765763 142.2773815691471 L 473.57443018666527 142.2773815691471 L 473.57443018666527 142.2773815691471 A 4.593473374843597 4.593473374843597 0 0 1 478.16790356150887 146.8708549439907 L 478.16790356150887 156.0578016936779 L 478.16790356150887 156.0578016936779 A 4.593473374843597 4.593473374843597 0 0 1 473.57443018666527 160.6512750685215 L 448.2946262765763 160.6512750685215 L 448.2946262765763 160.6512750685215 A 4.593473374843597 4.593473374843597 0 0 1 443.7011529017327 156.0578016936779 L 443.7011529017327 146.8708549439907 L 443.7011529017327 146.8708549439907 A 4.593473374843597 4.593473374843597 0 0 1 448.2946262765763 142.2773815691471 Z" stroke-linejoin="round" stroke-miterlimit="10" stroke-width="1.1249999637700423" stroke-dasharray=""/>
      <g fill="lightblue"/>
      <g stroke="black" stroke-linejoin="round" stroke-miterlimit="10" stroke-width="1.1249999637700423" stroke-dasharray=""/>
      <text fill="black" stroke="none" font-family="arial" font-size="14px" font-style="normal" font-weight="normal" text-decoration="undefined" x="-5.51025390625" y="-243" text-anchor="start" dominant-baseline="central" transform="matrix(0.7655788958072662 0 0 0.7655788958072662 451.7475814819336 337.5)">brake</text>
      <path fill="lightblue" stroke="black" paint-order="stroke fill markers" d=" M 452.1699956187804 266.30116268992424 L 469.6990608444612 266.30116268992424 L 469.6990608444612 266.30116268992424 A 4.593473374843597 4.593473374843597 0 0 1 474.2925342193048 270.89463606476784 L 474.2925342193048 280.08158281445503 L 474.2925342193048 280.08158281445503 A 4.593473374843597 4.593473374843597 0 0 1 469.6990608444612 284.67505618929863 L 452.1699956187804 284.67505618929863 L 452.1699956187804 284.67505618929863 A 4.593473374843597 4.593473374843597 0 0 1 447.5765222439368 280.08158281445503 L 447.5765222439368 270.89463606476784 L 447.5765222439368 270.89463606476784 A 4.593473374843597 4.593473374843597 0 0 1 452.1699956187804 266.30116268992424 Z" stroke-linejoin="round" stroke-miterlimit="10" stroke-width="1.1249999637700423" stroke-dasharray=""/>
      <g fill="lightblue"/>
      <g stroke="black" stroke-linejoin="round" stroke-miterlimit="10" stroke-width="1.1249999637700423" stroke-dasharray=""/>
      <text fill="black" stroke="none" font-family="arial" font-size="14px" font-style="normal" font-weight="normal" text-decoration="undefined" x="-0.4482421875" y="-81" text-anchor="start" dominant-baseline="central" transform="matrix(0.7655788958072662 0 0 0.7655788958072662 451.7475814819336 337.5)">wait</text>
      <path fill="lightblue" stroke="black" paint-order="stroke fill markers" d=" M 697.1077674139378 266.30116268992424 L 722.3875713240268 266.30116268992424 L 722.3875713240268 266.30116268992424 A 4.593473374843597 4.593473374843597 0 0 1 726.9810446988704 270.89463606476784 L 726.9810446988704 280.08158281445503 L 726.9810446988704 280.08158281445503 A 4.593473374843597 4.593473374843597 0 0 1 722.3875713240268 284.67505618929863 L 697.1077674139378 284.67505618929863 L 697.1077674139378 284.67505618929863 A 4.593473374843597 4.593473374843597 0 0 1 692.5142940390942 280.08158281445503 L 692.5142940390942 270.89463606476784 L 692.5142940390942 270.89463606476784 A 4.593473374843597 4.593473374843597 0 0 1 697.1077674139378 266.30116268992424 Z" stroke-linejoin="round" stroke-miterlimit="10" stroke-width="1.1249999637700423" stroke-dasharray=""/>
      <g fill="lightblue"/>
      <g stroke="black" stroke-linejoin="round" stroke-miterlimit="10" stroke-width="1.1249999637700423" stroke-dasharray=""/>
      <text fill="black" stroke="none" font-family="arial" font-size="14px" font-style="normal" font-weight="normal" text-decoration="undefined" x="319.48974609375" y="-81" text-anchor="start" dominant-baseline="central" transform="matrix(0.7655788958072662 0 0 0.7655788958072662 451.7475814819336 337.5)">brake</text>
      <path fill="lightblue" stroke="black" paint-order="stroke fill markers" d=" M 700.9831367561419 390.32494381070137 L 718.5122019818227 390.32494381070137 L 718.5122019818227 390.32494381070137 A 4.593473374843597 4.593473374843597 0 0 1 723.1056753566663 394.91841718554497 L 723.1056753566663 404.10536393523216 L 723.1056753566663 404.10536393523216 A 4.593473374843597 4.593473374843597 0 0 1 718.5122019818227 408.69883731007576 L 700.9831367561419 408.69883731007576 L 700.9831367561419 408.69883731007576 A 4.593473374843597 4.593473374843597 0 0 1 696.3896633812983 404.10536393523216 L 696.3896633812983 394.91841718554497 L 696.3896633812983 394.91841718554497 A 4.593473374843597 4.593473374843597 0 0 1 700.9831367561419 390.32494381070137 Z" stroke-linejoin="round" stroke-miterlimit="10" stroke-width="1.1249999637700423" stroke-dasharray=""/>
      <g fill="lightblue"/>
      <g stroke="black" stroke-linejoin="round" stroke-miterlimit="10" stroke-width="1.1249999637700423" stroke-dasharray=""/>
      <text fill="black" stroke="none" font-family="arial" font-size="14px" font-style="normal" font-weight="normal" text-decoration="undefined" x="324.5517578125" y="81" text-anchor="start" dominant-baseline="central" transform="matrix(0.7655788958072662 0 0 0.7655788958072662 451.7475814819336 337.5)">wait</text>
      <path fill="black" stroke="none" paint-order="stroke fill markers" d=" M 193.75048413744662 285.0563503659214 L 183.27373904408125 294.91681633614763 L 182.65745992094207 290.60286247417366 L 179.5760643052464 287.52146685847794 Z"/>
      <path fill="black" stroke="none" paint-order="stroke fill markers" d=" M 198.8373970349785 392.48710608284455 L 184.66297720277828 390.021989590288 L 187.74437281847395 386.9405939745923 L 188.36065194161313 382.6266401126183 Z"/>
      <path fill="black" stroke="none" paint-order="stroke fill markers" d=" M 431.62422058393713 399.51189056038857 L 417.84380045940634 403.6460165977478 L 419.2218424718594 399.51189056038857 L 417.84380045940634 395.3777645230293 Z"/>
      <path fill="black" stroke="none" paint-order="stroke fill markers" d=" M 451.2451703315601 513.846313781105 L 438.5776732586082 507.0253538187463 L 442.4753646656703 505.07650811521523 L 444.4242103692014 501.17881670815314 Z"/>
      <path fill="black" stroke="none" paint-order="stroke fill markers" d=" M 451.2451703315601 161.15368621889502 L 444.4242103692014 173.8211832918469 L 442.4753646656703 169.92349188478477 L 438.5776732586082 167.97464618125372 Z"/>
      <path fill="black" stroke="none" paint-order="stroke fill markers" d=" M 446.88495927653275 275.48810943961143 L 433.10453915200196 279.6222354769707 L 434.48258116445504 275.48810943961143 L 433.10453915200196 271.3539834022522 Z"/>
      <path fill="black" stroke="none" paint-order="stroke fill markers" d=" M 691.7117071790854 284.4507654971676 L 681.2107665929159 294.28546039365943 L 680.6050886932089 289.9700053582473 L 677.531273352196 286.8810480697418 Z"/>
      <path fill="black" stroke="none" paint-order="stroke fill markers" d=" M 695.6113746796036 392.48710608284455 L 681.4309408527142 390.05682351027036 L 684.5047561937272 386.96786622176484 L 685.1104340934342 382.6524111863527 Z"/>
      <path fill="black" stroke="none" paint-order="stroke fill markers" d=" M 857.6091258592285 333.90305409410803 L 854.9840781285554 319.75737979724136 L 858.9456296230342 321.57289835606974 L 863.2041819539143 320.6483823064452 Z"/>
      <path fill="black" stroke="none" paint-order="stroke fill markers" d=" M 287.73725576803554 275.48810943961143 L 273.95683564350475 279.6222354769707 L 275.3348776559578 275.48810943961143 L 273.95683564350475 271.3539834022522 Z"/>
      <path fill="black" stroke="none" paint-order="stroke fill markers" d=" M 303.2402284081327 399.51189056038857 L 289.4598082836019 403.6460165977478 L 290.83785029605497 399.51189056038857 L 289.4598082836019 395.3777645230293 Z"/>
      <path fill="black" stroke="none" paint-order="stroke fill markers" d=" M 565.821827499778 347.06824092630995 L 555.3450824064126 356.9287068965362 L 554.7288032832735 352.6147530345622 L 551.6474076675778 349.5333574188665 Z"/>
      <path fill="black" stroke="none" paint-order="stroke fill markers" d=" M 108.48413461691234 347.3104748738115 L 122.65855444911256 349.775591366368 L 119.57715883341689 352.85698698206375 L 118.96087971027771 357.1709408440377 Z"/>
      <path fill="black" stroke="none" paint-order="stroke fill markers" d=" M 108.48413461691234 327.6895251261885 L 118.96087971027771 317.8290591559623 L 119.57715883341689 322.14301301793625 L 122.65855444911256 325.224408633632 Z"/>
      <path fill="black" stroke="none" paint-order="stroke fill markers" d=" M 565.821827499778 327.93175907369005 L 551.6474076675778 325.4666425811335 L 554.7288032832735 322.3852469654378 L 555.3450824064126 318.0712931034638 Z"/>
      <path fill="black" stroke="none" paint-order="stroke fill markers" d=" M 360.2130547519773 391.76040424034 L 371.9840829845511 383.4879275102853 L 371.98139798723525 387.84567815386816 L 374.5939003755323 391.3334896671239 Z"/>
      <path fill="black" stroke="none" paint-order="stroke fill markers" d=" M 817.2995420596562 345.7359542150516 L 806.8227969662909 355.59642018527785 L 806.2065178431517 351.2824663233039 L 803.125122227456 348.20107070760815 Z"/>
    </g>
  </g>
</svg>
