<?xml version='1.0' encoding='utf-8'?>
<svg xmlns="http://www.w3.org/2000/svg" xmlns:xlink="http://www.w3.org/1999/xlink" version="1.1" width="800" height="650.238344630389" viewBox="0 0 641.3042234834487 521.2507458529434">
  <defs/>
  <g>
    <g/>
    <rect fill="#FFFFFF" stroke="none" x="0" y="0" width="800" height="600" transform="matrix(1.125 0 0 1.125 0 0)"/>
    <g>
      <path fill="none" stroke="rgb(255,173,173)" paint-order="fill stroke markers" d=" M 451.64778985932145 336.98256572928443 Q 519.9764300737121 383.5105356760504 580.0103330881984 424.4017296164908" stroke-opacity="1" stroke-miterlimit="10" stroke-dasharray=""/>
      <g>
        <text fill="none" stroke="white" font-family="arial" font-size="14px" font-style="normal" font-weight="normal" text-decoration="undefined" x="48.87822939761778" y="40.17999983694119" text-anchor="start" dominant-baseline="central" transform="matrix(1.125 0 0 1.125 451.96741104125977 336.89884185791016)" stroke-linejoin="round" stroke-miterlimit="10" stroke-width="2.25" stroke-dasharray="">1/6</text>
        <text fill="black" stroke="none" font-family="arial" font-size="14px" font-style="normal" font-weight="normal" text-decoration="undefined" x="48.87822939761778" y="40.17999983694119" text-anchor="start" dominant-baseline="central" transform="matrix(1.125 0 0 1.125 451.96741104125977 336.89884185791016)">1/6</text>
      </g>
      <path fill="none" stroke="rgb(255,173,173)" paint-order="fill stroke markers" d=" M 451.64778985932145 336.98256572928443 Q 458.4096247240295 254.0203646640401 460.2162523828859 179.49928798563639" stroke-opacity="1" stroke-miterlimit="10" stroke-dasharray=""/>
      <g>
        <text fill="none" stroke="white" font-family="arial" font-size="14px" font-style="normal" font-weight="normal" text-decoration="undefined" x="-5.105702025643905" y="-71.79395208636436" text-anchor="start" dominant-baseline="central" transform="matrix(1.125 0 0 1.125 451.96741104125977 336.89884185791016)" stroke-linejoin="round" stroke-miterlimit="10" stroke-width="2.25" stroke-dasharray="">1/6</text>
        <text fill="black" stroke="none" font-family="arial" font-size="14px" font-style="normal" font-weight="normal" text-decoration="undefined" x="-5.105702025643905" y="-71.79395208636436" text-anchor="start" dominant-baseline="central" transform="matrix(1.125 0 0 1.125 451.96741104125977 336.89884185791016)">1/6</text>
      </g>
      <path fill="none" stroke="rgb(255,173,173)" paint-order="fill stroke markers" d=" M 451.64778985932145 336.98256572928443 Q 528.3116401632943 300.0099836884707 594.7156203249997 265.28981683748407" stroke-opacity="1" stroke-miterlimit="10" stroke-dasharray=""/>
      <g>
        <text fill="none" stroke="white" font-family="arial" font-size="14px" font-style="normal" font-weight="normal" text-decoration="undefined" x="55.850608823387915" y="-32.28955944176237" text-anchor="start" dominant-baseline="central" transform="matrix(1.125 0 0 1.125 451.96741104125977 336.89884185791016)" stroke-linejoin="round" stroke-miterlimit="10" stroke-width="2.25" stroke-dasharray="">1/6</text>
        <text fill="black" stroke="none" font-family="arial" font-size="14px" font-style="normal" font-weight="normal" text-decoration="undefined" x="55.850608823387915" y="-32.28955944176237" text-anchor="start" dominant-baseline="central" transform="matrix(1.125 0 0 1.125 451.96741104125977 336.89884185791016)">1/6</text>
      </g>
      <path fill="none" stroke="rgb(255,173,173)" paint-order="fill stroke markers" d=" M 451.64778985932145 336.98256572928443 Q 384.5302816850357 287.9519822113821 325.5795556246791 244.0967964372885" stroke-opacity="1" stroke-miterlimit="10" stroke-dasharray=""/>
      <g>
        <text fill="none" stroke="white" font-family="arial" font-size="14px" font-style="normal" font-weight="normal" text-decoration="undefined" x="-67.86023154479824" y="-42.35823129828968" text-anchor="start" dominant-baseline="central" transform="matrix(1.125 0 0 1.125 451.96741104125977 336.89884185791016)" stroke-linejoin="round" stroke-miterlimit="10" stroke-width="2.25" stroke-dasharray="">1/6</text>
        <text fill="black" stroke="none" font-family="arial" font-size="14px" font-style="normal" font-weight="normal" text-decoration="undefined" x="-67.86023154479824" y="-42.35823129828968" text-anchor="start" dominant-baseline="central" transform="matrix(1.125 0 0 1.125 451.96741104125977 336.89884185791016)">1/6</text>
      </g>
      <path fill="none" stroke="rgb(255,173,173)" paint-order="fill stroke markers" d=" M 451.64778985932145 336.98256572928443 Q 444.9000816968322 422.06264202951525 436.64069249240106 495.5007458529434" stroke-opacity="1" stroke-miterlimit="10" stroke-dasharray=""/>
      <g>
        <text fill="none" stroke="white" font-family="arial" font-size="14px" font-style="normal" font-weight="normal" text-decoration="undefined" x="-16.348956680061583" y="73.11405071324836" text-anchor="start" dominant-baseline="central" transform="matrix(1.125 0 0 1.125 451.96741104125977 336.89884185791016)" stroke-linejoin="round" stroke-miterlimit="10" stroke-width="2.25" stroke-dasharray="">1/6</text>
        <text fill="black" stroke="none" font-family="arial" font-size="14px" font-style="normal" font-weight="normal" text-decoration="undefined" x="-16.348956680061583" y="73.11405071324836" text-anchor="start" dominant-baseline="central" transform="matrix(1.125 0 0 1.125 451.96741104125977 336.89884185791016)">1/6</text>
      </g>
      <path fill="none" stroke="rgb(255,173,173)" paint-order="fill stroke markers" d=" M 451.64778985932145 336.98256572928443 Q 374.14517235838684 371.9640484719824 305.284384287894 399.735230147856" stroke-opacity="1" stroke-miterlimit="10" stroke-dasharray=""/>
      <g>
        <text fill="none" stroke="white" font-family="arial" font-size="14px" font-style="normal" font-weight="normal" text-decoration="undefined" x="-76.98587376481663" y="29.566783419880995" text-anchor="start" dominant-baseline="central" transform="matrix(1.125 0 0 1.125 451.96741104125977 336.89884185791016)" stroke-linejoin="round" stroke-miterlimit="10" stroke-width="2.25" stroke-dasharray="">1/6</text>
        <text fill="black" stroke="none" font-family="arial" font-size="14px" font-style="normal" font-weight="normal" text-decoration="undefined" x="-76.98587376481663" y="29.566783419880995" text-anchor="start" dominant-baseline="central" transform="matrix(1.125 0 0 1.125 451.96741104125977 336.89884185791016)">1/6</text>
      </g>
      <path fill="none" stroke="rgb(255,173,173)" paint-order="fill stroke markers" d=" M 616.5989362466474 410.3131264580418 A 22.5 22.5 0 1 1 616.5989249966484 410.2906264617918" stroke-opacity="1" stroke-miterlimit="10" stroke-dasharray=""/>
      <text fill="none" stroke="white" font-family="arial" font-size="14px" font-style="normal" font-weight="normal" text-decoration="undefined" x="136.58820273338114" y="51.11500624305273" text-anchor="start" dominant-baseline="central" transform="matrix(1.125 0 0 1.125 451.96741104125977 336.89884185791016)" stroke-linejoin="round" stroke-miterlimit="10" stroke-width="2.25" stroke-dasharray="">1</text>
      <text fill="black" stroke="none" font-family="arial" font-size="14px" font-style="normal" font-weight="normal" text-decoration="undefined" x="136.58820273338114" y="51.11500624305273" text-anchor="start" dominant-baseline="central" transform="matrix(1.125 0 0 1.125 451.96741104125977 336.89884185791016)">1</text>
      <path fill="none" stroke="rgb(255,173,173)" paint-order="fill stroke markers" d=" M 496.804855541335 165.41068482718737 A 22.5 22.5 0 1 1 496.8048442913359 165.38818483093735" stroke-opacity="1" stroke-linejoin="round" stroke-miterlimit="10" stroke-dasharray=""/>
      <text fill="none" stroke="white" font-family="arial" font-size="14px" font-style="normal" font-weight="normal" text-decoration="undefined" x="30.104575439770002" y="-166.57605298437343" text-anchor="start" dominant-baseline="central" transform="matrix(1.125 0 0 1.125 451.96741104125977 336.89884185791016)" stroke-linejoin="round" stroke-miterlimit="10" stroke-width="2.25" stroke-dasharray="">1</text>
      <text fill="black" stroke="none" font-family="arial" font-size="14px" font-style="normal" font-weight="normal" text-decoration="undefined" x="30.104575439770002" y="-166.57605298437343" text-anchor="start" dominant-baseline="central" transform="matrix(1.125 0 0 1.125 451.96741104125977 336.89884185791016)">1</text>
      <path fill="none" stroke="rgb(255,173,173)" paint-order="fill stroke markers" d=" M 631.3042234834487 251.20121367903505 A 22.5 22.5 0 1 1 631.3042122334496 251.17871368278503" stroke-opacity="1" stroke-linejoin="round" stroke-miterlimit="10" stroke-dasharray=""/>
      <text fill="none" stroke="white" font-family="arial" font-size="14px" font-style="normal" font-weight="normal" text-decoration="undefined" x="149.65956916609332" y="-90.31780511606436" text-anchor="start" dominant-baseline="central" transform="matrix(1.125 0 0 1.125 451.96741104125977 336.89884185791016)" stroke-linejoin="round" stroke-miterlimit="10" stroke-width="2.25" stroke-dasharray="">1</text>
      <text fill="black" stroke="none" font-family="arial" font-size="14px" font-style="normal" font-weight="normal" text-decoration="undefined" x="149.65956916609332" y="-90.31780511606436" text-anchor="start" dominant-baseline="central" transform="matrix(1.125 0 0 1.125 451.96741104125977 336.89884185791016)">1</text>
      <path fill="none" stroke="rgb(255,173,173)" paint-order="fill stroke markers" d=" M 362.1681587831281 230.00819327883949 A 22.5 22.5 0 1 1 362.16814753312906 229.98569328258947" stroke-opacity="1" stroke-linejoin="round" stroke-miterlimit="10" stroke-dasharray=""/>
      <text fill="none" stroke="white" font-family="arial" font-size="14px" font-style="normal" font-weight="normal" text-decoration="undefined" x="-89.57248834530276" y="-109.15604547179377" text-anchor="start" dominant-baseline="central" transform="matrix(1.125 0 0 1.125 451.96741104125977 336.89884185791016)" stroke-linejoin="round" stroke-miterlimit="10" stroke-width="2.25" stroke-dasharray="">1</text>
      <text fill="black" stroke="none" font-family="arial" font-size="14px" font-style="normal" font-weight="normal" text-decoration="undefined" x="-89.57248834530276" y="-109.15604547179377" text-anchor="start" dominant-baseline="central" transform="matrix(1.125 0 0 1.125 451.96741104125977 336.89884185791016)">1</text>
      <path fill="none" stroke="rgb(255,173,173)" paint-order="fill stroke markers" d=" M 473.2292956508501 481.4121426944944 A 22.5 22.5 0 1 1 473.22928440085104 481.38964269824436" stroke-opacity="1" stroke-linejoin="round" stroke-miterlimit="10" stroke-dasharray=""/>
      <text fill="none" stroke="white" font-family="arial" font-size="14px" font-style="normal" font-weight="normal" text-decoration="undefined" x="9.148522203783447" y="114.31413178656612" text-anchor="start" dominant-baseline="central" transform="matrix(1.125 0 0 1.125 451.96741104125977 336.89884185791016)" stroke-linejoin="round" stroke-miterlimit="10" stroke-width="2.25" stroke-dasharray="">1</text>
      <text fill="black" stroke="none" font-family="arial" font-size="14px" font-style="normal" font-weight="normal" text-decoration="undefined" x="9.148522203783447" y="114.31413178656612" text-anchor="start" dominant-baseline="central" transform="matrix(1.125 0 0 1.125 451.96741104125977 336.89884185791016)">1</text>
      <path fill="none" stroke="rgb(255,173,173)" paint-order="fill stroke markers" d=" M 341.872987446343 385.64662698940697 A 22.5 22.5 0 1 1 341.872976196344 385.62412699315695" stroke-opacity="1" stroke-linejoin="round" stroke-miterlimit="10" stroke-dasharray=""/>
      <text fill="none" stroke="white" font-family="arial" font-size="14px" font-style="normal" font-weight="normal" text-decoration="undefined" x="-107.61264064466724" y="29.18922893759953" text-anchor="start" dominant-baseline="central" transform="matrix(1.125 0 0 1.125 451.96741104125977 336.89884185791016)" stroke-linejoin="round" stroke-miterlimit="10" stroke-width="2.25" stroke-dasharray="">1</text>
      <text fill="black" stroke="none" font-family="arial" font-size="14px" font-style="normal" font-weight="normal" text-decoration="undefined" x="-107.61264064466724" y="29.18922893759953" text-anchor="start" dominant-baseline="central" transform="matrix(1.125 0 0 1.125 451.96741104125977 336.89884185791016)">1</text>
      <path fill="white" stroke="black" paint-order="stroke fill markers" d=" M 433.70601739838395 336.98256572928443 C 433.70601739838395 328.2840801292844 441.73882164408707 321.23256572928443 451.64778985932145 321.23256572928443 C 461.55675807455583 321.23256572928443 469.58956232025895 328.2840801292844 469.58956232025895 336.98256572928443 C 469.58956232025895 345.6810513292844 461.55675807455583 352.73256572928443 451.64778985932145 352.73256572928443 C 441.73882164408707 352.73256572928443 433.70601739838395 345.6810513292844 433.70601739838395 336.98256572928443 Z" stroke-linejoin="round" stroke-miterlimit="10" stroke-dasharray=""/>
      <g fill="white"/>
      <g stroke="black" stroke-linejoin="round" stroke-miterlimit="10" stroke-dasharray=""/>
      <text fill="black" stroke="none" font-family="arial" font-size="14px" font-style="normal" font-weight="normal" text-decoration="undefined" x="-9.23234990477849" y="0.07442121899934234" text-anchor="start" dominant-baseline="central" transform="matrix(1.125 0 0 1.125 451.96741104125977 336.89884185791016)">init</text>
      <path fill="white" stroke="black" paint-order="stroke fill markers" d=" M 548.4949522288234 424.4017296164908 C 548.4949522288234 415.7032440164908 562.6048672733547 408.6517296164908 580.0103330881984 408.6517296164908 C 597.4157989030423 408.6517296164908 611.5257139475734 415.7032440164908 611.5257139475734 424.4017296164908 C 611.5257139475734 433.1002152164908 597.4157989030423 440.1517296164908 580.0103330881984 440.1517296164908 C 562.6048672733547 440.1517296164908 548.4949522288234 433.1002152164908 548.4949522288234 424.4017296164908 Z" stroke-linejoin="round" stroke-miterlimit="10" stroke-dasharray=""/>
      <g fill="white"/>
      <g stroke="black" stroke-linejoin="round" stroke-miterlimit="10" stroke-dasharray=""/>
      <text fill="black" stroke="none" font-family="arial" font-size="14px" font-style="normal" font-weight="normal" text-decoration="undefined" x="92.80225883338996" y="77.78034467429393" text-anchor="start" dominant-baseline="central" transform="matrix(1.125 0 0 1.125 451.96741104125977 336.89884185791016)">rolled1</text>
      <path fill="white" stroke="black" paint-order="stroke fill markers" d=" M 428.7008715235109 179.49928798563639 C 428.7008715235109 170.8008023856364 442.81078656804215 163.74928798563639 460.2162523828859 163.74928798563639 C 477.62171819772965 163.74928798563639 491.73163324226095 170.8008023856364 491.73163324226095 179.49928798563639 C 491.73163324226095 188.19777358563638 477.62171819772965 195.24928798563639 460.2162523828859 195.24928798563639 C 442.81078656804215 195.24928798563639 428.7008715235109 188.19777358563638 428.7008715235109 179.49928798563639 Z" stroke-linejoin="round" stroke-miterlimit="10" stroke-dasharray=""/>
      <g fill="white"/>
      <g stroke="black" stroke-linejoin="round" stroke-miterlimit="10" stroke-dasharray=""/>
      <text fill="black" stroke="none" font-family="arial" font-size="14px" font-style="normal" font-weight="normal" text-decoration="undefined" x="-13.681368460221197" y="-139.91071455313224" text-anchor="start" dominant-baseline="central" transform="matrix(1.125 0 0 1.125 451.96741104125977 336.89884185791016)">rolled2</text>
      <path fill="white" stroke="black" paint-order="stroke fill markers" d=" M 563.2002394656247 265.28981683748407 C 563.2002394656247 256.5913312374841 577.3101545101558 249.5398168374841 594.7156203249997 249.5398168374841 C 612.1210861398433 249.5398168374841 626.2310011843747 256.5913312374841 626.2310011843747 265.28981683748407 C 626.2310011843747 273.9883024374841 612.1210861398433 281.03981683748407 594.7156203249997 281.03981683748407 C 577.3101545101558 281.03981683748407 563.2002394656247 273.9883024374841 563.2002394656247 265.28981683748407 Z" stroke-linejoin="round" stroke-miterlimit="10" stroke-dasharray=""/>
      <g fill="white"/>
      <g stroke="black" stroke-linejoin="round" stroke-miterlimit="10" stroke-dasharray=""/>
      <text fill="black" stroke="none" font-family="arial" font-size="14px" font-style="normal" font-weight="normal" text-decoration="undefined" x="105.87362526610211" y="-63.65246668482316" text-anchor="start" dominant-baseline="central" transform="matrix(1.125 0 0 1.125 451.96741104125977 336.89884185791016)">rolled3</text>
      <path fill="white" stroke="black" paint-order="stroke fill markers" d=" M 294.0641747653041 244.0967964372885 C 294.0641747653041 235.3983108372885 308.1740898098353 228.3467964372885 325.5795556246791 228.3467964372885 C 342.9850214395228 228.3467964372885 357.0949364840541 235.3983108372885 357.0949364840541 244.0967964372885 C 357.0949364840541 252.79528203728853 342.9850214395228 259.8467964372885 325.5795556246791 259.8467964372885 C 308.1740898098353 259.8467964372885 294.0641747653041 252.79528203728853 294.0641747653041 244.0967964372885 Z" stroke-linejoin="round" stroke-miterlimit="10" stroke-dasharray=""/>
      <g fill="white"/>
      <g stroke="black" stroke-linejoin="round" stroke-miterlimit="10" stroke-dasharray=""/>
      <text fill="black" stroke="none" font-family="arial" font-size="14px" font-style="normal" font-weight="normal" text-decoration="undefined" x="-133.35843224529395" y="-82.49070704055258" text-anchor="start" dominant-baseline="central" transform="matrix(1.125 0 0 1.125 451.96741104125977 336.89884185791016)">rolled4</text>
      <path fill="white" stroke="black" paint-order="stroke fill markers" d=" M 405.12531163302606 495.5007458529434 C 405.12531163302606 486.80226025294337 419.2352266775573 479.7507458529434 436.64069249240106 479.7507458529434 C 454.0461583072448 479.7507458529434 468.15607335177606 486.80226025294337 468.15607335177606 495.5007458529434 C 468.15607335177606 504.19923145294337 454.0461583072448 511.2507458529434 436.64069249240106 511.2507458529434 C 419.2352266775573 511.2507458529434 405.12531163302606 504.19923145294337 405.12531163302606 495.5007458529434 Z" stroke-linejoin="round" stroke-miterlimit="10" stroke-dasharray=""/>
      <g fill="white"/>
      <g stroke="black" stroke-linejoin="round" stroke-miterlimit="10" stroke-dasharray=""/>
      <text fill="black" stroke="none" font-family="arial" font-size="14px" font-style="normal" font-weight="normal" text-decoration="undefined" x="-34.63742169620775" y="140.97947021780732" text-anchor="start" dominant-baseline="central" transform="matrix(1.125 0 0 1.125 451.96741104125977 336.89884185791016)">rolled5</text>
      <path fill="white" stroke="black" paint-order="stroke fill markers" d=" M 273.769003428519 399.735230147856 C 273.769003428519 391.03674454785596 287.87891847305025 383.985230147856 305.284384287894 383.985230147856 C 322.68985010273775 383.985230147856 336.799765147269 391.03674454785596 336.799765147269 399.735230147856 C 336.799765147269 408.43371574785596 322.68985010273775 415.485230147856 305.284384287894 415.485230147856 C 287.87891847305025 415.485230147856 273.769003428519 408.43371574785596 273.769003428519 399.735230147856 Z" stroke-linejoin="round" stroke-miterlimit="10" stroke-dasharray=""/>
      <g fill="white"/>
      <g stroke="black" stroke-linejoin="round" stroke-miterlimit="10" stroke-dasharray=""/>
      <text fill="black" stroke="none" font-family="arial" font-size="14px" font-style="normal" font-weight="normal" text-decoration="undefined" x="-151.39858454465843" y="55.854567368840726" text-anchor="start" dominant-baseline="central" transform="matrix(1.125 0 0 1.125 451.96741104125977 336.89884185791016)">rolled6</text>
      <path fill="rgb(255,173,173)" stroke="none" paint-order="stroke fill markers" d=" M 561.5262438750283 411.8118721807557 L 541.3696908223081 405.4336675718648 L 546.4631406612232 401.5525570686124 L 548.2092342304037 395.3915987626614 Z" fill-opacity="1"/>
      <path fill="rgb(255,173,173)" stroke="none" paint-order="stroke fill markers" d=" M 459.78004683465144 195.31247377177314 L 465.14597221338977 215.76180065139957 L 459.1451978285646 213.52641326161088 L 453.0033458868313 215.33856798067504 Z" fill-opacity="1"/>
      <path fill="rgb(255,173,173)" stroke="none" paint-order="stroke fill markers" d=" M 572.9165811430472 276.60593816485294 L 557.6679876557524 291.24999913369726 L 556.6985714181359 284.92019011933945 L 552.125153019428 280.4379926504231 Z" fill-opacity="1"/>
      <path fill="rgb(255,173,173)" stroke="none" paint-order="stroke fill markers" d=" M 343.26049678072786 257.2303378307642 L 363.14840605427037 264.4024497740721 L 357.90512808485187 268.0786279709785 L 355.9162126274608 274.1655373101548 Z" fill-opacity="1"/>
      <path fill="rgb(255,173,173)" stroke="none" paint-order="stroke fill markers" d=" M 438.3660919809643 479.880394516416 L 434.4624111855163 459.10229543956945 L 440.2897378844921 461.7571991183125 L 446.54454145091864 460.38472604192134 Z" fill-opacity="1"/>
      <path fill="rgb(255,173,173)" stroke="none" paint-order="stroke fill markers" d=" M 329.76027939502296 389.7491326522437 L 346.12519297612073 376.3641511997649 L 346.58813922544243 382.7510072941386 L 350.79060988152406 387.58272442004454 Z" fill-opacity="1"/>
      <path fill="rgb(255,173,173)" stroke="none" paint-order="stroke fill markers" d=" M 611.6967665936297 424.33333926237657 L 613.1145199728155 403.2393092928376 L 618.0925153395405 407.2674369135647 L 624.4917882053567 407.50314179011144 Z" fill-opacity="1"/>
      <path fill="rgb(255,173,173)" stroke="none" paint-order="stroke fill markers" d=" M 491.90268588831714 179.43089763152216 L 493.32043926750293 158.3368676619832 L 498.2984346342279 162.3649952827103 L 504.69770750004415 162.60070015925703 Z" fill-opacity="1"/>
      <path fill="rgb(255,173,173)" stroke="none" paint-order="stroke fill markers" d=" M 626.4020538304309 265.22142648336984 L 627.8198072096167 244.1273965138309 L 632.7978025763416 248.155524134558 L 639.1970754421579 248.3912290111047 Z" fill-opacity="1"/>
      <path fill="rgb(255,173,173)" stroke="none" paint-order="stroke fill markers" d=" M 357.26598913011026 244.02840608317425 L 358.68374250929605 222.9343761136353 L 363.66173787602105 226.96250373436243 L 370.06101074183726 227.19820861090915 Z" fill-opacity="1"/>
      <path fill="rgb(255,173,173)" stroke="none" paint-order="stroke fill markers" d=" M 468.32712599783224 495.4323554988291 L 469.74487937701804 474.33832552929016 L 474.72287474374303 478.3664531500173 L 481.12214760955925 478.60215802656404 Z" fill-opacity="1"/>
      <path fill="rgb(255,173,173)" stroke="none" paint-order="stroke fill markers" d=" M 336.97081779332524 399.6668397937417 L 338.38857117251104 378.57280982420275 L 343.36656653923603 382.60093744492985 L 349.76583940505225 382.8366423214766 Z" fill-opacity="1"/>
    </g>
  </g>
</svg>
